<mxfile host="Electron" modified="2023-10-27T05:40:06.364Z" agent="Mozilla/5.0 (Windows NT 10.0; Win64; x64) AppleWebKit/537.36 (KHTML, like Gecko) draw.io/21.7.5 Chrome/114.0.5735.289 Electron/25.8.1 Safari/537.36" etag="aWJWtnvNfHgktNnugm4C" version="21.7.5" type="device" pages="3">
  <diagram name="桥接模式" id="1JzbTgagu3kk1AN8X_Bk">
    <mxGraphModel dx="592" dy="346" grid="1" gridSize="10" guides="1" tooltips="1" connect="1" arrows="1" fold="1" page="1" pageScale="1" pageWidth="3300" pageHeight="4681" math="0" shadow="0">
      <root>
        <mxCell id="0" />
        <mxCell id="1" parent="0" />
        <mxCell id="7cUcG--D_aADuvjLxDd4-1" value="" style="image;aspect=fixed;perimeter=ellipsePerimeter;html=1;align=center;shadow=0;dashed=0;spacingTop=3;image=img/lib/active_directory/internet_cloud.svg;sketch=1;hachureGap=4;jiggle=2;curveFitting=1;fontFamily=Architects Daughter;fontSource=https%3A%2F%2Ffonts.googleapis.com%2Fcss%3Ffamily%3DArchitects%2BDaughter;fontSize=20;" vertex="1" parent="1">
          <mxGeometry x="311" y="251" width="50" height="31.5" as="geometry" />
        </mxCell>
        <mxCell id="7cUcG--D_aADuvjLxDd4-15" style="edgeStyle=orthogonalEdgeStyle;shape=connector;rounded=0;hachureGap=4;orthogonalLoop=1;jettySize=auto;html=1;exitX=0.5;exitY=1;exitDx=0;exitDy=0;labelBackgroundColor=default;strokeColor=default;fontFamily=Architects Daughter;fontSource=https%3A%2F%2Ffonts.googleapis.com%2Fcss%3Ffamily%3DArchitects%2BDaughter;fontSize=16;fontColor=default;endArrow=none;endFill=0;" edge="1" parent="1" source="7cUcG--D_aADuvjLxDd4-2" target="7cUcG--D_aADuvjLxDd4-3">
          <mxGeometry relative="1" as="geometry" />
        </mxCell>
        <mxCell id="7cUcG--D_aADuvjLxDd4-28" style="edgeStyle=orthogonalEdgeStyle;shape=connector;rounded=0;hachureGap=4;orthogonalLoop=1;jettySize=auto;html=1;exitX=0.5;exitY=0;exitDx=0;exitDy=0;entryX=0.46;entryY=1.017;entryDx=0;entryDy=0;entryPerimeter=0;labelBackgroundColor=default;strokeColor=default;fontFamily=Architects Daughter;fontSource=https%3A%2F%2Ffonts.googleapis.com%2Fcss%3Ffamily%3DArchitects%2BDaughter;fontSize=16;fontColor=default;endArrow=none;endFill=0;" edge="1" parent="1" source="7cUcG--D_aADuvjLxDd4-2" target="7cUcG--D_aADuvjLxDd4-27">
          <mxGeometry relative="1" as="geometry" />
        </mxCell>
        <mxCell id="7cUcG--D_aADuvjLxDd4-2" value="" style="shape=image;verticalLabelPosition=bottom;labelBackgroundColor=default;verticalAlign=top;aspect=fixed;imageAspect=0;image=data:image/svg+xml,PHN2ZyB4bWxuczp4bGluaz0iaHR0cDovL3d3dy53My5vcmcvMTk5OS94bGluayIgeG1sbnM9Imh0dHA6Ly93d3cudzMub3JnLzIwMDAvc3ZnIiBoZWlnaHQ9IjIwMCIgd2lkdGg9IjIwMCIgdmVyc2lvbj0iMS4xIiB2aWV3Qm94PSIwIDAgMTAyNCAxMDI0IiBjbGFzcz0iaWNvbiI+PHBhdGggZmlsbD0iIzEzMjI3YSIgZD0iTTgzMiAxOTJIMTcwLjY2NjY2N1YxMzguNjY2NjY3QzE3MC42NjY2NjcgMTIxLjYgMTU1LjczMzMzMyAxMDYuNjY2NjY3IDEzOC42NjY2NjcgMTA2LjY2NjY2N1MxMDYuNjY2NjY3IDEyMS42IDEwNi42NjY2NjcgMTM4LjY2NjY2N3Y3NDYuNjY2NjY2YzAgMTcuMDY2NjY3IDE0LjkzMzMzMyAzMiAzMiAzMlMxNzAuNjY2NjY3IDkwMi40IDE3MC42NjY2NjcgODg1LjMzMzMzM1Y3NjhoMTA2LjY2NjY2NnY0Mi42NjY2NjdjMCAyMy40NjY2NjcgMTkuMiA0Mi42NjY2NjcgNDIuNjY2NjY3IDQyLjY2NjY2Nmg0MjYuNjY2NjY3YzIzLjQ2NjY2NyAwIDQyLjY2NjY2Ny0xOS4yIDQyLjY2NjY2Ni00Mi42NjY2NjZ2LTQyLjY2NjY2N2g0Mi42NjY2NjdjNDYuOTMzMzMzIDAgODUuMzMzMzMzLTM4LjQgODUuMzMzMzMzLTg1LjMzMzMzM1YyNzcuMzMzMzMzYzAtNDYuOTMzMzMzLTM4LjQtODUuMzMzMzMzLTg1LjMzMzMzMy04NS4zMzMzMzN6TTQwNS4zMzMzMzMgNzQ2LjY2NjY2N2MwIDE3LjA2NjY2Ny0xNC45MzMzMzMgMzItMzIgMzJTMzQxLjMzMzMzMyA3NjMuNzMzMzMzIDM0MS4zMzMzMzMgNzQ2LjY2NjY2N3YtNDIuNjY2NjY3YzAtMTcuMDY2NjY3IDE0LjkzMzMzMy0zMiAzMi0zMnMzMiAxNC45MzMzMzMgMzIgMzJ2NDIuNjY2NjY3eiBtMTA2LjY2NjY2NyAwYzAgMTcuMDY2NjY3LTE0LjkzMzMzMyAzMi0zMiAzMlM0NDggNzYzLjczMzMzMyA0NDggNzQ2LjY2NjY2N3YtNDIuNjY2NjY3YzAtMTcuMDY2NjY3IDE0LjkzMzMzMy0zMiAzMi0zMnMzMiAxNC45MzMzMzMgMzIgMzJ2NDIuNjY2NjY3eiBtMC0xNzAuNjY2NjY3Yy0xNy4wNjY2NjcgMC0zMi0xNC45MzMzMzMtMzItMzIgMC0xMi44IDguNTMzMzMzLTIzLjQ2NjY2NyAxOS4yLTI5Ljg2NjY2NyAyLjEzMzMzMyAwIDQuMjY2NjY3LTIuMTMzMzMzIDQuMjY2NjY3LTIuMTMzMzMzaDEyLjhjMi4xMzMzMzMgMCA0LjI2NjY2NyAwIDQuMjY2NjY2IDIuMTMzMzMzIDEwLjY2NjY2NyA0LjI2NjY2NyAxOS4yIDE3LjA2NjY2NyAxOS4yIDI5Ljg2NjY2NyA0LjI2NjY2NyAxNy4wNjY2NjctMTAuNjY2NjY3IDMyLTI3LjczMzMzMyAzMnogbTEwNi42NjY2NjcgMTcwLjY2NjY2N2MwIDE3LjA2NjY2Ny0xNC45MzMzMzMgMzItMzIgMzJTNTU0LjY2NjY2NyA3NjMuNzMzMzMzIDU1NC42NjY2NjcgNzQ2LjY2NjY2N3YtNDIuNjY2NjY3YzAtMTcuMDY2NjY3IDE0LjkzMzMzMy0zMiAzMi0zMnMzMiAxNC45MzMzMzMgMzIgMzJ2NDIuNjY2NjY3eiBtLTMyLTI0NS4zMzMzMzRjLTguNTMzMzMzIDAtMTcuMDY2NjY3LTQuMjY2NjY3LTIzLjQ2NjY2Ny04LjUzMzMzMy0xMi44LTEyLjgtMzItMjEuMzMzMzMzLTUzLjMzMzMzMy0yMS4zMzMzMzNzLTM4LjQgOC41MzMzMzMtNTMuMzMzMzM0IDIzLjQ2NjY2NmMtNi40IDYuNC0xMi44IDguNTMzMzMzLTIzLjQ2NjY2NiA4LjUzMzMzNC0xNy4wNjY2NjcgMC0zMi0xNC45MzMzMzMtMzItMzIgMC04LjUzMzMzMyA0LjI2NjY2Ny0xNy4wNjY2NjcgOC41MzMzMzMtMjMuNDY2NjY3IDI1LjYtMjUuNiA1OS43MzMzMzMtNDAuNTMzMzMzIDk4LjEzMzMzMy00MC41MzMzMzNzNzIuNTMzMzMzIDE0LjkzMzMzMyA5OC4xMzMzMzQgNDAuNTMzMzMzYzYuNCA2LjQgOC41MzMzMzMgMTIuOCA4LjUzMzMzMyAyMS4zMzMzMzMgNC4yNjY2NjcgMTcuMDY2NjY3LTEwLjY2NjY2NyAzMi0yNy43MzMzMzMgMzJ6IG01My4zMzMzMzMtODUuMzMzMzMzQzYwOCAzODQgNTYxLjA2NjY2NyAzNjIuNjY2NjY3IDUxMiAzNjIuNjY2NjY3cy05NiAyMS4zMzMzMzMtMTI4IDUzLjMzMzMzM2MtNi40IDYuNC0xNC45MzMzMzMgMTAuNjY2NjY3LTIzLjQ2NjY2NyAxMC42NjY2NjctMTcuMDY2NjY3IDAtMzItMTQuOTMzMzMzLTMyLTMyIDAtOC41MzMzMzMgNC4yNjY2NjctMTcuMDY2NjY3IDEwLjY2NjY2Ny0yMy40NjY2NjdDMzg0IDMyNi40IDQ0My43MzMzMzMgMjk4LjY2NjY2NyA1MTIgMjk4LjY2NjY2N2M2Ni4xMzMzMzMgMCAxMjUuODY2NjY3IDI1LjYgMTY4LjUzMzMzMyA2OC4yNjY2NjZsMi4xMzMzMzQgMi4xMzMzMzRjNC4yNjY2NjcgNi40IDguNTMzMzMzIDEyLjggOC41MzMzMzMgMjEuMzMzMzMzIDAgMTcuMDY2NjY3LTE0LjkzMzMzMyAzMi0zMiAzMi02LjQgMi4xMzMzMzMtMTIuOC0yLjEzMzMzMy0xOS4yLTYuNHpNNzI1LjMzMzMzMyA3NDYuNjY2NjY3YzAgMTcuMDY2NjY3LTE0LjkzMzMzMyAzMi0zMiAzMlM2NjEuMzMzMzMzIDc2My43MzMzMzMgNjYxLjMzMzMzMyA3NDYuNjY2NjY3di00Mi42NjY2NjdjMC0xNy4wNjY2NjcgMTQuOTMzMzMzLTMyIDMyLTMyczMyIDE0LjkzMzMzMyAzMiAzMnY0Mi42NjY2Njd6Ii8+PC9zdmc+;" vertex="1" parent="1">
          <mxGeometry x="325" y="352" width="20" height="20" as="geometry" />
        </mxCell>
        <mxCell id="7cUcG--D_aADuvjLxDd4-3" value="" style="sketch=0;pointerEvents=1;shadow=0;dashed=0;html=1;strokeColor=none;labelPosition=center;verticalLabelPosition=bottom;verticalAlign=top;outlineConnect=0;align=center;shape=mxgraph.office.servers.physical_host;fillColor=#2072B8;hachureGap=4;jiggle=2;curveFitting=1;fontFamily=Architects Daughter;fontSource=https%3A%2F%2Ffonts.googleapis.com%2Fcss%3Ffamily%3DArchitects%2BDaughter;fontSize=20;" vertex="1" parent="1">
          <mxGeometry x="321.5" y="452" width="27" height="52" as="geometry" />
        </mxCell>
        <mxCell id="7cUcG--D_aADuvjLxDd4-18" style="shape=connector;rounded=0;hachureGap=4;orthogonalLoop=1;jettySize=auto;html=1;exitX=0.5;exitY=0;exitDx=0;exitDy=0;entryX=0.152;entryY=0.99;entryDx=0;entryDy=0;labelBackgroundColor=default;strokeColor=default;fontFamily=Architects Daughter;fontSource=https%3A%2F%2Ffonts.googleapis.com%2Fcss%3Ffamily%3DArchitects%2BDaughter;fontSize=16;fontColor=default;endArrow=none;endFill=0;entryPerimeter=0;" edge="1" parent="1" source="7cUcG--D_aADuvjLxDd4-6" target="7cUcG--D_aADuvjLxDd4-11">
          <mxGeometry relative="1" as="geometry" />
        </mxCell>
        <mxCell id="7cUcG--D_aADuvjLxDd4-6" value="" style="shape=image;verticalLabelPosition=bottom;labelBackgroundColor=default;verticalAlign=top;aspect=fixed;imageAspect=0;image=data:image/svg+xml,PHN2ZyB4bWxuczp4bGluaz0iaHR0cDovL3d3dy53My5vcmcvMTk5OS94bGluayIgeG1sbnM9Imh0dHA6Ly93d3cudzMub3JnLzIwMDAvc3ZnIiBoZWlnaHQ9IjIwMCIgd2lkdGg9IjIwMCIgdmVyc2lvbj0iMS4xIiB2aWV3Qm94PSIwIDAgMTAyNCAxMDI0IiBjbGFzcz0iaWNvbiI+PHBhdGggZmlsbD0iIzQ3NjJBRiIgZD0iTTU0MS4yNzk1NzMgNTI5Ljk3NDYxM2MtMTcuNDQ4OTYtMTAuMDc2MTYtNDMuODg4NjQtMTEuMTc1MjUzLTU5LjAwMjg4LTIuNDUwNzczTDg1LjI5OTIgNzU2LjcyMjM0N2MtMTUuMTIxMDY3IDguNzI0NDgtMTMuMjE2NDI3IDIzLjk4ODkwNyA0LjIzMjUzMyAzNC4wNjUwNjZsMzg4LjUwNTYgMjI0LjMwMzc4N2MxNy40NTU3ODcgMTAuMDc2MTYgNDMuODk1NDY3IDExLjE3NTI1MyA1OS4wMDk3MDcgMi40NTA3NzNsMzk2Ljk3NzQ5My0yMjkuMTk4NTA2YzE1LjExNDI0LTguNzI0NDggMTMuMjE2NDI3LTIzLjk4ODkwNy00LjIzOTM2LTM0LjA2NTA2N2wtMzg4LjUwNTYtMjI0LjMwMzc4N3oiLz48cGF0aCBmaWxsPSIjNDc2MkFGIiBkPSJNNzUuMDkzMzMzIDI0OS44ODMzMDd2NTIxLjYzMjQyNmw0MzQuNTY1MTIgMjUxLjg5MDM0N1Y1MDEuNzczNjUzTDc1LjA5MzMzMyAyNDkuODgzMzA3eiIvPjxwYXRoIGZpbGw9IiM0NzYyQUYiIGQ9Ik01MDcuMjYyMjkzIDQ5NS4zNjM0MTNsNDM2LjkyNzE0Ny0yNDcuMjA3MjUzdjUyNC4zNzY3NDdMNTA3LjI2MjI5MyA2NzkuMDE0NFY0OTUuMzYzNDEzeiIvPjxwYXRoIGZpbGw9IiM2RDhBQ0EiIGQ9Ik01NDEuMjc5NTczIDguMzM1MzZDNTIzLjgzMDYxMy0xLjc0MDggNDk3LjM5MDkzMy0yLjgzMzA2NyA0ODIuMjc2NjkzIDUuODkxNDEzTDg1LjI5OTIgMjM1LjA4MzA5M2MtMTUuMTIxMDY3IDguNzMxMzA3LTEzLjIxNjQyNyAyMy45OTU3MzMgNC4yMzI1MzMgMzQuMDcxODk0bDM4OC41MDU2IDIyNC4zMDM3ODZjMTcuNDU1Nzg3IDEwLjA3NjE2IDQzLjg5NTQ2NyAxMS4xNjg0MjcgNTkuMDA5NzA3IDIuNDQzOTQ3bDM5Ni45Nzc0OTMtMjI5LjE5MTY4YzE1LjExNDI0LTguNzMxMzA3IDEzLjIxNjQyNy0yMy45OTU3MzMtNC4yMzkzNi0zNC4wNzE4OTNMNTQxLjI3OTU3MyA4LjMzNTM2ek0xMTcuODQ4NzQ3IDQzMC4zMDUyOGMwIDE3LjAwNTIyNyAxMC4zNDkyMjcgMzYuNzgyMDggMjMuMTAxNDQgNDQuMTQ4MDUzbDE3OS4wNDI5ODYgMTAzLjM2MjU2YzEyLjc1MjIxMyA3LjM2NTk3MyAyMy4xMDE0NC0wLjQ2NDIxMyAyMy4xMDE0NC0xNy40NjI2MTMgMC0xNy4wMDUyMjctMTAuMzQ5MjI3LTM2Ljc4MjA4LTIzLjEwMTQ0LTQ0LjE0ODA1M0wxNDAuOTUwMTg3IDQxMi44NDI2NjdjLTEyLjc1MjIxMy03LjM2NTk3My0yMy4xMDE0NCAwLjQ2NDIxMy0yMy4xMDE0NCAxNy40NjI2MTN6Ii8+PHBhdGggZmlsbD0iIzYwRTAwMCIgZD0iTTQyOS40NTg3NzMgNTc5LjQxMzMzM2MxNC43MjUxMiA4LjQ5OTIgMjYuNjc4NjEzIDI5LjIwNDQ4IDI2LjY3ODYxNCA0Ni4yMDI4OCAwIDE3LjAwNTIyNy0xMS45NTM0OTMgMjMuOTA2OTg3LTI2LjY3ODYxNCAxNS40MDc3ODctMTQuNzE4MjkzLTguNTA2MDI3LTI2LjY3ODYxMy0yOS4yMTEzMDctMjYuNjc4NjEzLTQ2LjIwOTcwNyAwLTE3LjAwNTIyNyAxMS45NjAzMi0yMy45MDY5ODcgMjYuNjc4NjEzLTE1LjQwMDk2eiIvPjxwYXRoIGZpbGw9IiM2RDhBQ0EiIGQ9Ik0xMTcuODQ4NzQ3IDU2Mi41NjUxMmMwIDE3LjAwNTIyNyAxMC4zNDkyMjcgMzYuNzgyMDggMjMuMTAxNDQgNDQuMTQ4MDUzbDE3OS4wNDI5ODYgMTAzLjM2OTM4N2MxMi43NTIyMTMgNy4zNTkxNDcgMjMuMTAxNDQtMC40NjQyMTMgMjMuMTAxNDQtMTcuNDY5NDQgMC0xNi45OTg0LTEwLjM0OTIyNy0zNi43ODIwOC0yMy4xMDE0NC00NC4xNDEyMjdMMTQwLjk1MDE4NyA1NDUuMTAyNTA3Yy0xMi43NTIyMTMtNy4zNjU5NzMtMjMuMTAxNDQgMC40NjQyMTMtMjMuMTAxNDQgMTcuNDYyNjEzeiIvPjxwYXRoIGZpbGw9IiM2MEUwMDAiIGQ9Ik00MjkuNDU4NzczIDcxMS42NzMxNzNjMTQuNzI1MTIgOC40OTkyIDI2LjY3ODYxMyAyOS4yMDQ0OCAyNi42Nzg2MTQgNDYuMjA5NzA3IDAgMTYuOTk4NC0xMS45NTM0OTMgMjMuOTAwMTYtMjYuNjc4NjE0IDE1LjQwMDk2LTE0LjcxODI5My04LjQ5OTItMjYuNjc4NjEzLTI5LjIwNDQ4LTI2LjY3ODYxMy00Ni4yMDk3MDcgMC0xNi45OTg0IDExLjk2MDMyLTIzLjkwMDE2IDI2LjY3ODYxMy0xNS40MDA5NnoiLz48cGF0aCBmaWxsPSIjNkQ4QUNBIiBkPSJNMTE3Ljg0ODc0NyA2OTQuODMxNzg3YzAgMTYuOTk4NCAxMC4zNDkyMjcgMzYuNzgyMDggMjMuMTAxNDQgNDQuMTQxMjI2bDE3OS4wNDI5ODYgMTAzLjM2OTM4N2MxMi43NTIyMTMgNy4zNTkxNDcgMjMuMTAxNDQtMC40NjQyMTMgMjMuMTAxNDQtMTcuNDY5NDQgMC0xNi45OTg0LTEwLjM0OTIyNy0zNi43ODIwOC0yMy4xMDE0NC00NC4xNDEyMjdMMTQwLjk1MDE4NyA2NzcuMzYyMzQ3Yy0xMi43NTIyMTMtNy4zNTkxNDctMjMuMTAxNDQgMC40NjQyMTMtMjMuMTAxNDQgMTcuNDY5NDR6Ii8+PHBhdGggZmlsbD0iIzYwRTAwMCIgZD0iTTQyOS40NTg3NzMgODQzLjkzMzAxM2MxNC43MjUxMiA4LjQ5OTIgMjYuNjc4NjEzIDI5LjIwNDQ4IDI2LjY3ODYxNCA0Ni4yMDk3MDcgMCAxNi45OTg0LTExLjk1MzQ5MyAyMy45MDAxNi0yNi42Nzg2MTQgMTUuNDAwOTYtMTQuNzE4MjkzLTguNDk5Mi0yNi42Nzg2MTMtMjkuMjA0NDgtMjYuNjc4NjEzLTQ2LjIwOTcwNyAwLTE2Ljk5ODQgMTEuOTYwMzItMjMuOTAwMTYgMjYuNjc4NjEzLTE1LjQwMDk2eiIvPjwvc3ZnPg==;" vertex="1" parent="1">
          <mxGeometry x="522" y="454" width="50" height="50" as="geometry" />
        </mxCell>
        <mxCell id="7cUcG--D_aADuvjLxDd4-11" value="" style="shape=image;verticalLabelPosition=bottom;labelBackgroundColor=default;verticalAlign=top;aspect=fixed;imageAspect=0;image=data:image/svg+xml,PHN2ZyB4bWxuczp4bGluaz0iaHR0cDovL3d3dy53My5vcmcvMTk5OS94bGluayIgeG1sbnM9Imh0dHA6Ly93d3cudzMub3JnLzIwMDAvc3ZnIiBoZWlnaHQ9IjIwMCIgd2lkdGg9IjQyNC4wMjM0Mzc1IiB2ZXJzaW9uPSIxLjEiIHZpZXdCb3g9IjAgMCAyMTcxIDEwMjQiIGNsYXNzPSJpY29uIj48cGF0aCBmaWxsPSIjMzMzMzMzIiBkPSJNMjA2Ny4zMzQyNCAwLjAxNTI1N2gtNTUwLjQyODQ3NWEyOS45MjczNDggMjkuOTI3MzQ4IDAgMCAwIDAgNTguNjgxMDc0aDU1MC40Mjg0NzVhNDMuNDIzOTk1IDQzLjQyMzk5NSAwIDAgMSA0My40MjM5OTUgNDIuODM3MTg0djY2OS41NTEwNTZhNDMuNDIzOTk1IDQzLjQyMzk5NSAwIDAgMS00My40MjM5OTUgNDMuNDIzOTk0SDk2OS40MTEzNDRhMjkuOTI3MzQ4IDI5LjkyNzM0OCAwIDAgMCAwIDU4LjY4MTA3NWg3NTIuODc4MTgxdjEwNC40NTIzMTFhNDYuOTQ0ODU5IDQ2Ljk0NDg1OSAwIDAgMCA0Ni4zNTgwNDggNDYuMzU4MDQ5aDExNy4zNjIxNDhhNDYuMzU4MDQ5IDQ2LjM1ODA0OSAwIDAgMCA0Ni4zNTgwNDktNDYuMzU4MDQ5di0xMDQuNDUyMzExaDEzNS41NTMyODFBMTAyLjEwNTA2OSAxMDIuMTA1MDY5IDAgMCAwIDIxNzEuMTk5NzQxIDc3MS4wODQ1NzFWMTAxLjUzMzUxNUExMDIuMTA1MDY5IDEwMi4xMDUwNjkgMCAwIDAgMjA2Ny4zMzQyNCAwLjAxNTI1N3ogbS0xOTQuMjM0MzU1IDk2NS4zMDM2NjloLTkyLjEyOTI4NnYtOTIuMTI5Mjg2aDkyLjEyOTI4NnpNMzEwLjQyMjg4MiAyNjguNzc0NTc2YTQ2LjM1ODA0OSA0Ni4zNTgwNDkgMCAwIDAtNDYuMzU4MDQ5IDQ2LjM1ODA0OXYyMDUuOTcwNTdhNDYuMzU4MDQ5IDQ2LjM1ODA0OSAwIDAgMCA0Ni4zNTgwNDkgNDYuMzU4MDQ5SDUxNi4zOTM0NTJhNDYuMzU4MDQ5IDQ2LjM1ODA0OSAwIDAgMCA0Ni4zNTgwNDktNDYuMzU4MDQ5VjMxNS4xMzI2MjVhNDYuMzU4MDQ5IDQ2LjM1ODA0OSAwIDAgMC00Ni4zNTgwNDktNDYuMzU4MDQ5eiBtMTkzLjY0NzU0NCAyNDAuMDA1NTkzSDMyMi43NDU5MDhWMzI3LjQ1NTY1MWgxODEuMzI0NTE4ek0xMDAzLjQ0NjM2NyA1MjEuMTAzMTk1VjMxNS4xMzI2MjVhNDYuMzU4MDQ5IDQ2LjM1ODA0OSAwIDAgMC00Ni4zNTgwNDktNDYuMzU4MDQ5SDc1MS4xMTc3NDhhNDYuMzU4MDQ5IDQ2LjM1ODA0OSAwIDAgMC00Ni4zNTgwNDggNDYuMzU4MDQ5djIwNS45NzA1N2E0Ni4zNTgwNDkgNDYuMzU4MDQ5IDAgMCAwIDQ2LjM1ODA0OCA0Ni4zNTgwNDloMjA1Ljk3MDU3YTQ2LjM1ODA0OSA0Ni4zNTgwNDkgMCAwIDAgNDYuMzU4MDQ5LTQ2LjM1ODA0OXogbS01OC42ODEwNzQtMTIuMzIzMDI2SDc2Mi44NTM5NjNWMzI3LjQ1NTY1MWgxODEuOTExMzN6Ii8+PHBhdGggZmlsbD0iIzMzMzMzMyIgZD0iTTExNDUuNDU0NTY2IDMxNS4xMzI2MjV2MjA1Ljk3MDU3YTQ2LjM1ODA0OSA0Ni4zNTgwNDkgMCAwIDAgNDYuMzU4MDQ5IDQ2LjM1ODA0OWgyMDUuOTcwNTdhNDYuMzU4MDQ5IDQ2LjM1ODA0OSAwIDAgMCA0Ni4zNTgwNDgtNDYuMzU4MDQ5VjMxNS4xMzI2MjVhNDYuMzU4MDQ5IDQ2LjM1ODA0OSAwIDAgMC00Ni4zNTgwNDgtNDYuMzU4MDQ5aC0yMDUuOTcwNTdhNDYuMzU4MDQ5IDQ2LjM1ODA0OSAwIDAgMC00Ni4zNTgwNDkgNDYuMzU4MDQ5eiBtNTguNjgxMDc0IDEyLjMyMzAyNmgxODEuMzI0NTE5djE4MS4zMjQ1MThoLTE4MS4zMjQ1MTl6TTE4MzguNDc4MDUxIDU2Ny40NjEyNDRhNDYuMzU4MDQ5IDQ2LjM1ODA0OSAwIDAgMCA0Ni45NDQ4Ni00Ni4zNTgwNDlWMzE1LjEzMjYyNWE0Ni4zNTgwNDkgNDYuMzU4MDQ5IDAgMCAwLTQ2Ljk0NDg2LTQ2LjM1ODA0OWgtMjA1Ljk3MDU3YTQ2LjM1ODA0OSA0Ni4zNTgwNDkgMCAwIDAtNDYuMzU4MDQ4IDQ2LjM1ODA0OXYyMDUuOTcwNTdhNDYuMzU4MDQ5IDQ2LjM1ODA0OSAwIDAgMCA0Ni4zNTgwNDggNDYuMzU4MDQ5ek0xNjQzLjA3MDA3NSAzMjcuNDU1NjUxaDE4MS45MTEzMjl2MTgxLjMyNDUxOEgxNjQzLjA3MDA3NXpNMTM2NS41MDg1OTQgNTguNjk2MzMxYTI4Ljc1MzcyNiAyOC43NTM3MjYgMCAwIDAgMjguNzUzNzI2LTI5LjM0MDUzNyAyOS4zNDA1MzcgMjkuMzQwNTM3IDAgMSAwLTI4Ljc1MzcyNiAyOS4zNDA1Mzd6Ii8+PHBhdGggZmlsbD0iIzMzMzMzMyIgZD0iTTg0My44MzM4NDUgODQzLjI2MjI5Mm0tMjkuMzQwNTM3IDBhMjkuMzQwNTM3IDI5LjM0MDUzNyAwIDEgMCA1OC42ODEwNzUgMCAyOS4zNDA1MzcgMjkuMzQwNTM3IDAgMSAwLTU4LjY4MTA3NSAwWiIvPjxwYXRoIGZpbGw9IiMzMzMzMzMiIGQ9Ik02ODQuMjIxMzI0IDgxMy45MjE3NTVIMTAxLjUxODI1OGE0My40MjM5OTUgNDMuNDIzOTk1IDAgMCAxLTQyLjgzNzE4NC00Mi44MzcxODRWMTAxLjUzMzUxNUE0Mi44MzcxODQgNDIuODM3MTg0IDAgMCAxIDEwMS41MTgyNTggNTguNjk2MzMxaDExMTQuOTQwNDA4YTI5LjkyNzM0OCAyOS45MjczNDggMCAwIDAgMC01OC42ODEwNzRoLTExMTQuOTQwNDA4QTEwMi4xMDUwNjkgMTAyLjEwNTA2OSAwIDAgMCAwIDEwMS41MzM1MTV2NjY5LjU1MTA1NmExMDIuMTA1MDY5IDEwMi4xMDUwNjkgMCAwIDAgMTAxLjUxODI1OCAxMDIuMTA1MDY5aDE2My43MjAxOTd2MTA0LjQ1MjMxMWE0Ni45NDQ4NTkgNDYuOTQ0ODU5IDAgMCAwIDQ2LjM1ODA0OCA0Ni4zNTgwNDloMTE3LjM2MjE0OWE0Ni4zNTgwNDkgNDYuMzU4MDQ5IDAgMCAwIDQ2LjM1ODA0OC00Ni4zNTgwNDl2LTEwNC40NTIzMTFoMjA5LjQ5MTQzNWEyOS45MjczNDggMjkuOTI3MzQ4IDAgMCAwIDAtNTguNjgxMDc1eiBtLTI2OC4xNzI1MDkgMTUxLjM5NzE3MUgzMjMuOTE5NTI5di05Mi4xMjkyODZoOTIuMTI5Mjg2eiIvPjwvc3ZnPg==;" vertex="1" parent="1">
          <mxGeometry x="530" y="360" width="110" height="51.9" as="geometry" />
        </mxCell>
        <mxCell id="7cUcG--D_aADuvjLxDd4-19" style="shape=connector;rounded=0;hachureGap=4;orthogonalLoop=1;jettySize=auto;html=1;exitX=0.5;exitY=0;exitDx=0;exitDy=0;labelBackgroundColor=default;strokeColor=default;fontFamily=Architects Daughter;fontSource=https%3A%2F%2Ffonts.googleapis.com%2Fcss%3Ffamily%3DArchitects%2BDaughter;fontSize=16;fontColor=default;endArrow=none;endFill=0;" edge="1" parent="1" source="7cUcG--D_aADuvjLxDd4-12">
          <mxGeometry relative="1" as="geometry">
            <mxPoint x="630" y="410" as="targetPoint" />
          </mxGeometry>
        </mxCell>
        <mxCell id="7cUcG--D_aADuvjLxDd4-12" value="" style="shape=image;verticalLabelPosition=bottom;labelBackgroundColor=default;verticalAlign=top;aspect=fixed;imageAspect=0;image=data:image/svg+xml,PHN2ZyB4bWxuczp4bGluaz0iaHR0cDovL3d3dy53My5vcmcvMTk5OS94bGluayIgeG1sbnM9Imh0dHA6Ly93d3cudzMub3JnLzIwMDAvc3ZnIiBoZWlnaHQ9IjIwMCIgd2lkdGg9IjIwMCIgdmVyc2lvbj0iMS4xIiB2aWV3Qm94PSIwIDAgMTAyNCAxMDI0IiBjbGFzcz0iaWNvbiI+PHBhdGggZmlsbD0iIzQ3NjJBRiIgZD0iTTU0MS4yNzk1NzMgNTI5Ljk3NDYxM2MtMTcuNDQ4OTYtMTAuMDc2MTYtNDMuODg4NjQtMTEuMTc1MjUzLTU5LjAwMjg4LTIuNDUwNzczTDg1LjI5OTIgNzU2LjcyMjM0N2MtMTUuMTIxMDY3IDguNzI0NDgtMTMuMjE2NDI3IDIzLjk4ODkwNyA0LjIzMjUzMyAzNC4wNjUwNjZsMzg4LjUwNTYgMjI0LjMwMzc4N2MxNy40NTU3ODcgMTAuMDc2MTYgNDMuODk1NDY3IDExLjE3NTI1MyA1OS4wMDk3MDcgMi40NTA3NzNsMzk2Ljk3NzQ5My0yMjkuMTk4NTA2YzE1LjExNDI0LTguNzI0NDggMTMuMjE2NDI3LTIzLjk4ODkwNy00LjIzOTM2LTM0LjA2NTA2N2wtMzg4LjUwNTYtMjI0LjMwMzc4N3oiLz48cGF0aCBmaWxsPSIjNDc2MkFGIiBkPSJNNzUuMDkzMzMzIDI0OS44ODMzMDd2NTIxLjYzMjQyNmw0MzQuNTY1MTIgMjUxLjg5MDM0N1Y1MDEuNzczNjUzTDc1LjA5MzMzMyAyNDkuODgzMzA3eiIvPjxwYXRoIGZpbGw9IiM0NzYyQUYiIGQ9Ik01MDcuMjYyMjkzIDQ5NS4zNjM0MTNsNDM2LjkyNzE0Ny0yNDcuMjA3MjUzdjUyNC4zNzY3NDdMNTA3LjI2MjI5MyA2NzkuMDE0NFY0OTUuMzYzNDEzeiIvPjxwYXRoIGZpbGw9IiM2RDhBQ0EiIGQ9Ik01NDEuMjc5NTczIDguMzM1MzZDNTIzLjgzMDYxMy0xLjc0MDggNDk3LjM5MDkzMy0yLjgzMzA2NyA0ODIuMjc2NjkzIDUuODkxNDEzTDg1LjI5OTIgMjM1LjA4MzA5M2MtMTUuMTIxMDY3IDguNzMxMzA3LTEzLjIxNjQyNyAyMy45OTU3MzMgNC4yMzI1MzMgMzQuMDcxODk0bDM4OC41MDU2IDIyNC4zMDM3ODZjMTcuNDU1Nzg3IDEwLjA3NjE2IDQzLjg5NTQ2NyAxMS4xNjg0MjcgNTkuMDA5NzA3IDIuNDQzOTQ3bDM5Ni45Nzc0OTMtMjI5LjE5MTY4YzE1LjExNDI0LTguNzMxMzA3IDEzLjIxNjQyNy0yMy45OTU3MzMtNC4yMzkzNi0zNC4wNzE4OTNMNTQxLjI3OTU3MyA4LjMzNTM2ek0xMTcuODQ4NzQ3IDQzMC4zMDUyOGMwIDE3LjAwNTIyNyAxMC4zNDkyMjcgMzYuNzgyMDggMjMuMTAxNDQgNDQuMTQ4MDUzbDE3OS4wNDI5ODYgMTAzLjM2MjU2YzEyLjc1MjIxMyA3LjM2NTk3MyAyMy4xMDE0NC0wLjQ2NDIxMyAyMy4xMDE0NC0xNy40NjI2MTMgMC0xNy4wMDUyMjctMTAuMzQ5MjI3LTM2Ljc4MjA4LTIzLjEwMTQ0LTQ0LjE0ODA1M0wxNDAuOTUwMTg3IDQxMi44NDI2NjdjLTEyLjc1MjIxMy03LjM2NTk3My0yMy4xMDE0NCAwLjQ2NDIxMy0yMy4xMDE0NCAxNy40NjI2MTN6Ii8+PHBhdGggZmlsbD0iIzYwRTAwMCIgZD0iTTQyOS40NTg3NzMgNTc5LjQxMzMzM2MxNC43MjUxMiA4LjQ5OTIgMjYuNjc4NjEzIDI5LjIwNDQ4IDI2LjY3ODYxNCA0Ni4yMDI4OCAwIDE3LjAwNTIyNy0xMS45NTM0OTMgMjMuOTA2OTg3LTI2LjY3ODYxNCAxNS40MDc3ODctMTQuNzE4MjkzLTguNTA2MDI3LTI2LjY3ODYxMy0yOS4yMTEzMDctMjYuNjc4NjEzLTQ2LjIwOTcwNyAwLTE3LjAwNTIyNyAxMS45NjAzMi0yMy45MDY5ODcgMjYuNjc4NjEzLTE1LjQwMDk2eiIvPjxwYXRoIGZpbGw9IiM2RDhBQ0EiIGQ9Ik0xMTcuODQ4NzQ3IDU2Mi41NjUxMmMwIDE3LjAwNTIyNyAxMC4zNDkyMjcgMzYuNzgyMDggMjMuMTAxNDQgNDQuMTQ4MDUzbDE3OS4wNDI5ODYgMTAzLjM2OTM4N2MxMi43NTIyMTMgNy4zNTkxNDcgMjMuMTAxNDQtMC40NjQyMTMgMjMuMTAxNDQtMTcuNDY5NDQgMC0xNi45OTg0LTEwLjM0OTIyNy0zNi43ODIwOC0yMy4xMDE0NC00NC4xNDEyMjdMMTQwLjk1MDE4NyA1NDUuMTAyNTA3Yy0xMi43NTIyMTMtNy4zNjU5NzMtMjMuMTAxNDQgMC40NjQyMTMtMjMuMTAxNDQgMTcuNDYyNjEzeiIvPjxwYXRoIGZpbGw9IiM2MEUwMDAiIGQ9Ik00MjkuNDU4NzczIDcxMS42NzMxNzNjMTQuNzI1MTIgOC40OTkyIDI2LjY3ODYxMyAyOS4yMDQ0OCAyNi42Nzg2MTQgNDYuMjA5NzA3IDAgMTYuOTk4NC0xMS45NTM0OTMgMjMuOTAwMTYtMjYuNjc4NjE0IDE1LjQwMDk2LTE0LjcxODI5My04LjQ5OTItMjYuNjc4NjEzLTI5LjIwNDQ4LTI2LjY3ODYxMy00Ni4yMDk3MDcgMC0xNi45OTg0IDExLjk2MDMyLTIzLjkwMDE2IDI2LjY3ODYxMy0xNS40MDA5NnoiLz48cGF0aCBmaWxsPSIjNkQ4QUNBIiBkPSJNMTE3Ljg0ODc0NyA2OTQuODMxNzg3YzAgMTYuOTk4NCAxMC4zNDkyMjcgMzYuNzgyMDggMjMuMTAxNDQgNDQuMTQxMjI2bDE3OS4wNDI5ODYgMTAzLjM2OTM4N2MxMi43NTIyMTMgNy4zNTkxNDcgMjMuMTAxNDQtMC40NjQyMTMgMjMuMTAxNDQtMTcuNDY5NDQgMC0xNi45OTg0LTEwLjM0OTIyNy0zNi43ODIwOC0yMy4xMDE0NC00NC4xNDEyMjdMMTQwLjk1MDE4NyA2NzcuMzYyMzQ3Yy0xMi43NTIyMTMtNy4zNTkxNDctMjMuMTAxNDQgMC40NjQyMTMtMjMuMTAxNDQgMTcuNDY5NDR6Ii8+PHBhdGggZmlsbD0iIzYwRTAwMCIgZD0iTTQyOS40NTg3NzMgODQzLjkzMzAxM2MxNC43MjUxMiA4LjQ5OTIgMjYuNjc4NjEzIDI5LjIwNDQ4IDI2LjY3ODYxNCA0Ni4yMDk3MDcgMCAxNi45OTg0LTExLjk1MzQ5MyAyMy45MDAxNi0yNi42Nzg2MTQgMTUuNDAwOTYtMTQuNzE4MjkzLTguNDk5Mi0yNi42Nzg2MTMtMjkuMjA0NDgtMjYuNjc4NjEzLTQ2LjIwOTcwNyAwLTE2Ljk5ODQgMTEuOTYwMzItMjMuOTAwMTYgMjYuNjc4NjEzLTE1LjQwMDk2eiIvPjwvc3ZnPg==;" vertex="1" parent="1">
          <mxGeometry x="606" y="455" width="50" height="50" as="geometry" />
        </mxCell>
        <mxCell id="7cUcG--D_aADuvjLxDd4-21" value="" style="shape=connector;rounded=0;hachureGap=4;orthogonalLoop=1;jettySize=auto;html=1;labelBackgroundColor=default;strokeColor=default;fontFamily=Architects Daughter;fontSource=https%3A%2F%2Ffonts.googleapis.com%2Fcss%3Ffamily%3DArchitects%2BDaughter;fontSize=16;fontColor=default;endArrow=none;endFill=0;" edge="1" parent="1" source="7cUcG--D_aADuvjLxDd4-11" target="7cUcG--D_aADuvjLxDd4-20">
          <mxGeometry relative="1" as="geometry">
            <mxPoint x="330" y="385.94999999999993" as="targetPoint" />
            <mxPoint x="580" y="386" as="sourcePoint" />
          </mxGeometry>
        </mxCell>
        <mxCell id="7cUcG--D_aADuvjLxDd4-30" style="shape=connector;rounded=0;hachureGap=4;orthogonalLoop=1;jettySize=auto;html=1;exitX=0;exitY=0.5;exitDx=0;exitDy=0;labelBackgroundColor=default;strokeColor=default;fontFamily=Architects Daughter;fontSource=https%3A%2F%2Ffonts.googleapis.com%2Fcss%3Ffamily%3DArchitects%2BDaughter;fontSize=16;fontColor=default;endArrow=none;endFill=0;" edge="1" parent="1">
          <mxGeometry relative="1" as="geometry">
            <mxPoint x="335" y="386.2380952380952" as="targetPoint" />
            <mxPoint x="375" y="386.4749999999999" as="sourcePoint" />
          </mxGeometry>
        </mxCell>
        <mxCell id="7cUcG--D_aADuvjLxDd4-20" value="Virtual Bridge" style="rounded=0;whiteSpace=wrap;html=1;hachureGap=4;fontFamily=Lucida Console;fontSize=7;fillColor=#fff2cc;strokeColor=#d6b656;" vertex="1" parent="1">
          <mxGeometry x="370" y="376" width="60" height="20.95" as="geometry" />
        </mxCell>
        <mxCell id="7cUcG--D_aADuvjLxDd4-25" value="&lt;font face=&quot;Comic Sans MS&quot; style=&quot;font-size: 10px;&quot;&gt;Vmnet0 Switch&lt;/font&gt;" style="text;html=1;align=center;verticalAlign=middle;resizable=0;points=[];autosize=1;strokeColor=none;fillColor=none;fontSize=10;fontFamily=Architects Daughter;fontColor=default;" vertex="1" parent="1">
          <mxGeometry x="540" y="335" width="90" height="30" as="geometry" />
        </mxCell>
        <mxCell id="7cUcG--D_aADuvjLxDd4-26" value="&lt;font face=&quot;Comic Sans MS&quot; style=&quot;font-size: 10px;&quot;&gt;Internet&lt;/font&gt;" style="text;html=1;align=center;verticalAlign=middle;resizable=0;points=[];autosize=1;strokeColor=none;fillColor=none;fontSize=10;fontFamily=Architects Daughter;fontColor=default;" vertex="1" parent="1">
          <mxGeometry x="305" y="228" width="60" height="30" as="geometry" />
        </mxCell>
        <mxCell id="7cUcG--D_aADuvjLxDd4-29" style="edgeStyle=orthogonalEdgeStyle;shape=connector;rounded=0;hachureGap=4;orthogonalLoop=1;jettySize=auto;html=1;exitX=0.5;exitY=0;exitDx=0;exitDy=0;entryX=0.5;entryY=1;entryDx=0;entryDy=0;labelBackgroundColor=default;strokeColor=default;fontFamily=Architects Daughter;fontSource=https%3A%2F%2Ffonts.googleapis.com%2Fcss%3Ffamily%3DArchitects%2BDaughter;fontSize=16;fontColor=default;endArrow=none;endFill=0;" edge="1" parent="1" source="7cUcG--D_aADuvjLxDd4-27" target="7cUcG--D_aADuvjLxDd4-1">
          <mxGeometry relative="1" as="geometry" />
        </mxCell>
        <mxCell id="7cUcG--D_aADuvjLxDd4-27" value="" style="shape=image;verticalLabelPosition=bottom;labelBackgroundColor=default;verticalAlign=top;aspect=fixed;imageAspect=0;image=data:image/svg+xml,PHN2ZyB4bWxuczp4bGluaz0iaHR0cDovL3d3dy53My5vcmcvMTk5OS94bGluayIgeG1sbnM9Imh0dHA6Ly93d3cudzMub3JnLzIwMDAvc3ZnIiBoZWlnaHQ9IjIwMCIgd2lkdGg9IjIwMCIgdmVyc2lvbj0iMS4xIiB2aWV3Qm94PSIwIDAgMTAyNCAxMDI0IiBjbGFzcz0iaWNvbiI+PHBhdGggZmlsbD0iIzEzMjI3YSIgZD0iTTk4OC40MTYgODIxLjIxNmwxLjUwNC0wLjU3Ni0xMDEuNTA0LTI2Ny4zMjhBNjQuMzIgNjQuMzIgMCAwIDAgODI4LjYwOCA1MTJoLTIwLjYwOFYxMTJhMzIgMzIgMCAxIDAtNjQgMFY1MTJINTQ0VjExMmEzMiAzMiAwIDEgMC02NCAwVjUxMkgyNzJWMTEyYTMyIDMyIDAgMCAwLTY0IDBWNTEyaC0xMi42MDhhNjQuMzIgNjQuMzIgMCAwIDAtNTkuODQgNDEuMzEybC0xMDEuNDcyIDI2Ny4zMjggMS41MDQgMC41NzZjLTIuMTEyIDguNjQtMy41ODQgMTcuNTA0LTMuNTg0IDI2Ljc4NEMzMiA5MDkuNzYgODIuMjQgOTYwIDE0NCA5NjBoNzM2YzYxLjc2IDAgMTEyLTUwLjI0IDExMi0xMTIgMC05LjI4LTEuNDcyLTE4LjE0NC0zLjU4NC0yNi43ODR6TTE5NS4zOTIgNTc2aDYzMy4xODRsNjEuMTIgMTYwLjk5MmMtMy4yMzItMC4yODgtNi4zNjgtMC45OTItOS42OTYtMC45OTJoLTczNmMtMy4zMjggMC02LjQ2NCAwLjcwNC05LjY5NiAwLjk5MkwxOTUuMzkyIDU3NnpNODgwIDg5NmgtNzM2Yy0yNi40NjQgMC00OC0yMS41MzYtNDgtNDhTMTE3LjUzNiA4MDAgMTQ0IDgwMGg3MzZjMjYuNDY0IDAgNDggMjEuNTM2IDQ4IDQ4cy0yMS41MzYgNDgtNDggNDh6Ii8+PC9zdmc+;" vertex="1" parent="1">
          <mxGeometry x="321.5" y="306" width="29" height="29" as="geometry" />
        </mxCell>
        <mxCell id="7cUcG--D_aADuvjLxDd4-31" value="&lt;font face=&quot;Comic Sans MS&quot; style=&quot;font-size: 8px;&quot;&gt;Physical Host:192.168.1.109&lt;/font&gt;" style="text;html=1;align=center;verticalAlign=middle;resizable=0;points=[];autosize=1;strokeColor=none;fillColor=none;fontSize=8;fontFamily=Architects Daughter;fontColor=default;" vertex="1" parent="1">
          <mxGeometry x="275" y="507" width="130" height="20" as="geometry" />
        </mxCell>
        <mxCell id="7cUcG--D_aADuvjLxDd4-32" value="&lt;font face=&quot;Comic Sans MS&quot; style=&quot;font-size: 8px;&quot;&gt;Router:192.168.1.1&lt;/font&gt;" style="text;html=1;align=center;verticalAlign=middle;resizable=0;points=[];autosize=1;strokeColor=none;fillColor=none;fontSize=8;fontFamily=Architects Daughter;fontColor=default;" vertex="1" parent="1">
          <mxGeometry x="344" y="313" width="90" height="20" as="geometry" />
        </mxCell>
        <mxCell id="7cUcG--D_aADuvjLxDd4-33" value="&lt;font face=&quot;Comic Sans MS&quot; style=&quot;font-size: 8px;&quot;&gt;Kali1:192.168.1.110&lt;/font&gt;" style="text;html=1;align=center;verticalAlign=middle;resizable=0;points=[];autosize=1;strokeColor=none;fillColor=none;fontSize=8;fontFamily=Architects Daughter;fontColor=default;" vertex="1" parent="1">
          <mxGeometry x="486" y="507" width="90" height="20" as="geometry" />
        </mxCell>
        <mxCell id="7cUcG--D_aADuvjLxDd4-34" value="&lt;font face=&quot;Comic Sans MS&quot; style=&quot;font-size: 8px;&quot;&gt;Kali2:192.168.1.106&lt;/font&gt;" style="text;html=1;align=center;verticalAlign=middle;resizable=0;points=[];autosize=1;strokeColor=none;fillColor=none;fontSize=8;fontFamily=Architects Daughter;fontColor=default;" vertex="1" parent="1">
          <mxGeometry x="595" y="507" width="90" height="20" as="geometry" />
        </mxCell>
      </root>
    </mxGraphModel>
  </diagram>
  <diagram id="4hvu3dXpQKx9iH8mj-EP" name="NAT模式">
    <mxGraphModel dx="739" dy="432" grid="1" gridSize="10" guides="1" tooltips="1" connect="1" arrows="1" fold="1" page="1" pageScale="1" pageWidth="3300" pageHeight="4681" math="0" shadow="0">
      <root>
        <mxCell id="0" />
        <mxCell id="1" parent="0" />
        <mxCell id="i5vnB2GfnYcnR_1JJq5a-1" value="" style="image;aspect=fixed;perimeter=ellipsePerimeter;html=1;align=center;shadow=0;dashed=0;spacingTop=3;image=img/lib/active_directory/internet_cloud.svg;sketch=1;hachureGap=4;jiggle=2;curveFitting=1;fontFamily=Architects Daughter;fontSource=https%3A%2F%2Ffonts.googleapis.com%2Fcss%3Ffamily%3DArchitects%2BDaughter;fontSize=20;" vertex="1" parent="1">
          <mxGeometry x="311" y="251" width="50" height="31.5" as="geometry" />
        </mxCell>
        <mxCell id="i5vnB2GfnYcnR_1JJq5a-2" style="edgeStyle=orthogonalEdgeStyle;shape=connector;rounded=0;hachureGap=4;orthogonalLoop=1;jettySize=auto;html=1;exitX=0.5;exitY=1;exitDx=0;exitDy=0;labelBackgroundColor=default;strokeColor=default;fontFamily=Architects Daughter;fontSource=https%3A%2F%2Ffonts.googleapis.com%2Fcss%3Ffamily%3DArchitects%2BDaughter;fontSize=16;fontColor=default;endArrow=none;endFill=0;" edge="1" parent="1" source="i5vnB2GfnYcnR_1JJq5a-4" target="i5vnB2GfnYcnR_1JJq5a-5">
          <mxGeometry relative="1" as="geometry" />
        </mxCell>
        <mxCell id="i5vnB2GfnYcnR_1JJq5a-3" style="edgeStyle=orthogonalEdgeStyle;shape=connector;rounded=0;hachureGap=4;orthogonalLoop=1;jettySize=auto;html=1;exitX=0.5;exitY=0;exitDx=0;exitDy=0;entryX=0.46;entryY=1.017;entryDx=0;entryDy=0;entryPerimeter=0;labelBackgroundColor=default;strokeColor=default;fontFamily=Architects Daughter;fontSource=https%3A%2F%2Ffonts.googleapis.com%2Fcss%3Ffamily%3DArchitects%2BDaughter;fontSize=16;fontColor=default;endArrow=none;endFill=0;" edge="1" parent="1" source="i5vnB2GfnYcnR_1JJq5a-4" target="i5vnB2GfnYcnR_1JJq5a-17">
          <mxGeometry relative="1" as="geometry" />
        </mxCell>
        <mxCell id="i5vnB2GfnYcnR_1JJq5a-4" value="" style="shape=image;verticalLabelPosition=bottom;labelBackgroundColor=default;verticalAlign=top;aspect=fixed;imageAspect=0;image=data:image/svg+xml,PHN2ZyB4bWxuczp4bGluaz0iaHR0cDovL3d3dy53My5vcmcvMTk5OS94bGluayIgeG1sbnM9Imh0dHA6Ly93d3cudzMub3JnLzIwMDAvc3ZnIiBoZWlnaHQ9IjIwMCIgd2lkdGg9IjIwMCIgdmVyc2lvbj0iMS4xIiB2aWV3Qm94PSIwIDAgMTAyNCAxMDI0IiBjbGFzcz0iaWNvbiI+PHBhdGggZmlsbD0iIzEzMjI3YSIgZD0iTTgzMiAxOTJIMTcwLjY2NjY2N1YxMzguNjY2NjY3QzE3MC42NjY2NjcgMTIxLjYgMTU1LjczMzMzMyAxMDYuNjY2NjY3IDEzOC42NjY2NjcgMTA2LjY2NjY2N1MxMDYuNjY2NjY3IDEyMS42IDEwNi42NjY2NjcgMTM4LjY2NjY2N3Y3NDYuNjY2NjY2YzAgMTcuMDY2NjY3IDE0LjkzMzMzMyAzMiAzMiAzMlMxNzAuNjY2NjY3IDkwMi40IDE3MC42NjY2NjcgODg1LjMzMzMzM1Y3NjhoMTA2LjY2NjY2NnY0Mi42NjY2NjdjMCAyMy40NjY2NjcgMTkuMiA0Mi42NjY2NjcgNDIuNjY2NjY3IDQyLjY2NjY2Nmg0MjYuNjY2NjY3YzIzLjQ2NjY2NyAwIDQyLjY2NjY2Ny0xOS4yIDQyLjY2NjY2Ni00Mi42NjY2NjZ2LTQyLjY2NjY2N2g0Mi42NjY2NjdjNDYuOTMzMzMzIDAgODUuMzMzMzMzLTM4LjQgODUuMzMzMzMzLTg1LjMzMzMzM1YyNzcuMzMzMzMzYzAtNDYuOTMzMzMzLTM4LjQtODUuMzMzMzMzLTg1LjMzMzMzMy04NS4zMzMzMzN6TTQwNS4zMzMzMzMgNzQ2LjY2NjY2N2MwIDE3LjA2NjY2Ny0xNC45MzMzMzMgMzItMzIgMzJTMzQxLjMzMzMzMyA3NjMuNzMzMzMzIDM0MS4zMzMzMzMgNzQ2LjY2NjY2N3YtNDIuNjY2NjY3YzAtMTcuMDY2NjY3IDE0LjkzMzMzMy0zMiAzMi0zMnMzMiAxNC45MzMzMzMgMzIgMzJ2NDIuNjY2NjY3eiBtMTA2LjY2NjY2NyAwYzAgMTcuMDY2NjY3LTE0LjkzMzMzMyAzMi0zMiAzMlM0NDggNzYzLjczMzMzMyA0NDggNzQ2LjY2NjY2N3YtNDIuNjY2NjY3YzAtMTcuMDY2NjY3IDE0LjkzMzMzMy0zMiAzMi0zMnMzMiAxNC45MzMzMzMgMzIgMzJ2NDIuNjY2NjY3eiBtMC0xNzAuNjY2NjY3Yy0xNy4wNjY2NjcgMC0zMi0xNC45MzMzMzMtMzItMzIgMC0xMi44IDguNTMzMzMzLTIzLjQ2NjY2NyAxOS4yLTI5Ljg2NjY2NyAyLjEzMzMzMyAwIDQuMjY2NjY3LTIuMTMzMzMzIDQuMjY2NjY3LTIuMTMzMzMzaDEyLjhjMi4xMzMzMzMgMCA0LjI2NjY2NyAwIDQuMjY2NjY2IDIuMTMzMzMzIDEwLjY2NjY2NyA0LjI2NjY2NyAxOS4yIDE3LjA2NjY2NyAxOS4yIDI5Ljg2NjY2NyA0LjI2NjY2NyAxNy4wNjY2NjctMTAuNjY2NjY3IDMyLTI3LjczMzMzMyAzMnogbTEwNi42NjY2NjcgMTcwLjY2NjY2N2MwIDE3LjA2NjY2Ny0xNC45MzMzMzMgMzItMzIgMzJTNTU0LjY2NjY2NyA3NjMuNzMzMzMzIDU1NC42NjY2NjcgNzQ2LjY2NjY2N3YtNDIuNjY2NjY3YzAtMTcuMDY2NjY3IDE0LjkzMzMzMy0zMiAzMi0zMnMzMiAxNC45MzMzMzMgMzIgMzJ2NDIuNjY2NjY3eiBtLTMyLTI0NS4zMzMzMzRjLTguNTMzMzMzIDAtMTcuMDY2NjY3LTQuMjY2NjY3LTIzLjQ2NjY2Ny04LjUzMzMzMy0xMi44LTEyLjgtMzItMjEuMzMzMzMzLTUzLjMzMzMzMy0yMS4zMzMzMzNzLTM4LjQgOC41MzMzMzMtNTMuMzMzMzM0IDIzLjQ2NjY2NmMtNi40IDYuNC0xMi44IDguNTMzMzMzLTIzLjQ2NjY2NiA4LjUzMzMzNC0xNy4wNjY2NjcgMC0zMi0xNC45MzMzMzMtMzItMzIgMC04LjUzMzMzMyA0LjI2NjY2Ny0xNy4wNjY2NjcgOC41MzMzMzMtMjMuNDY2NjY3IDI1LjYtMjUuNiA1OS43MzMzMzMtNDAuNTMzMzMzIDk4LjEzMzMzMy00MC41MzMzMzNzNzIuNTMzMzMzIDE0LjkzMzMzMyA5OC4xMzMzMzQgNDAuNTMzMzMzYzYuNCA2LjQgOC41MzMzMzMgMTIuOCA4LjUzMzMzMyAyMS4zMzMzMzMgNC4yNjY2NjcgMTcuMDY2NjY3LTEwLjY2NjY2NyAzMi0yNy43MzMzMzMgMzJ6IG01My4zMzMzMzMtODUuMzMzMzMzQzYwOCAzODQgNTYxLjA2NjY2NyAzNjIuNjY2NjY3IDUxMiAzNjIuNjY2NjY3cy05NiAyMS4zMzMzMzMtMTI4IDUzLjMzMzMzM2MtNi40IDYuNC0xNC45MzMzMzMgMTAuNjY2NjY3LTIzLjQ2NjY2NyAxMC42NjY2NjctMTcuMDY2NjY3IDAtMzItMTQuOTMzMzMzLTMyLTMyIDAtOC41MzMzMzMgNC4yNjY2NjctMTcuMDY2NjY3IDEwLjY2NjY2Ny0yMy40NjY2NjdDMzg0IDMyNi40IDQ0My43MzMzMzMgMjk4LjY2NjY2NyA1MTIgMjk4LjY2NjY2N2M2Ni4xMzMzMzMgMCAxMjUuODY2NjY3IDI1LjYgMTY4LjUzMzMzMyA2OC4yNjY2NjZsMi4xMzMzMzQgMi4xMzMzMzRjNC4yNjY2NjcgNi40IDguNTMzMzMzIDEyLjggOC41MzMzMzMgMjEuMzMzMzMzIDAgMTcuMDY2NjY3LTE0LjkzMzMzMyAzMi0zMiAzMi02LjQgMi4xMzMzMzMtMTIuOC0yLjEzMzMzMy0xOS4yLTYuNHpNNzI1LjMzMzMzMyA3NDYuNjY2NjY3YzAgMTcuMDY2NjY3LTE0LjkzMzMzMyAzMi0zMiAzMlM2NjEuMzMzMzMzIDc2My43MzMzMzMgNjYxLjMzMzMzMyA3NDYuNjY2NjY3di00Mi42NjY2NjdjMC0xNy4wNjY2NjcgMTQuOTMzMzMzLTMyIDMyLTMyczMyIDE0LjkzMzMzMyAzMiAzMnY0Mi42NjY2Njd6Ii8+PC9zdmc+;" vertex="1" parent="1">
          <mxGeometry x="325" y="352" width="20" height="20" as="geometry" />
        </mxCell>
        <mxCell id="i5vnB2GfnYcnR_1JJq5a-5" value="" style="sketch=0;pointerEvents=1;shadow=0;dashed=0;html=1;strokeColor=none;labelPosition=center;verticalLabelPosition=bottom;verticalAlign=top;outlineConnect=0;align=center;shape=mxgraph.office.servers.physical_host;fillColor=#2072B8;hachureGap=4;jiggle=2;curveFitting=1;fontFamily=Architects Daughter;fontSource=https%3A%2F%2Ffonts.googleapis.com%2Fcss%3Ffamily%3DArchitects%2BDaughter;fontSize=20;" vertex="1" parent="1">
          <mxGeometry x="321.5" y="452" width="27" height="52" as="geometry" />
        </mxCell>
        <mxCell id="i5vnB2GfnYcnR_1JJq5a-6" style="shape=connector;rounded=0;hachureGap=4;orthogonalLoop=1;jettySize=auto;html=1;exitX=0.5;exitY=0;exitDx=0;exitDy=0;entryX=0.152;entryY=0.99;entryDx=0;entryDy=0;labelBackgroundColor=default;strokeColor=default;fontFamily=Architects Daughter;fontSource=https%3A%2F%2Ffonts.googleapis.com%2Fcss%3Ffamily%3DArchitects%2BDaughter;fontSize=16;fontColor=default;endArrow=none;endFill=0;entryPerimeter=0;" edge="1" parent="1" source="i5vnB2GfnYcnR_1JJq5a-7" target="i5vnB2GfnYcnR_1JJq5a-8">
          <mxGeometry relative="1" as="geometry" />
        </mxCell>
        <mxCell id="i5vnB2GfnYcnR_1JJq5a-7" value="" style="shape=image;verticalLabelPosition=bottom;labelBackgroundColor=default;verticalAlign=top;aspect=fixed;imageAspect=0;image=data:image/svg+xml,PHN2ZyB4bWxuczp4bGluaz0iaHR0cDovL3d3dy53My5vcmcvMTk5OS94bGluayIgeG1sbnM9Imh0dHA6Ly93d3cudzMub3JnLzIwMDAvc3ZnIiBoZWlnaHQ9IjIwMCIgd2lkdGg9IjIwMCIgdmVyc2lvbj0iMS4xIiB2aWV3Qm94PSIwIDAgMTAyNCAxMDI0IiBjbGFzcz0iaWNvbiI+PHBhdGggZmlsbD0iIzQ3NjJBRiIgZD0iTTU0MS4yNzk1NzMgNTI5Ljk3NDYxM2MtMTcuNDQ4OTYtMTAuMDc2MTYtNDMuODg4NjQtMTEuMTc1MjUzLTU5LjAwMjg4LTIuNDUwNzczTDg1LjI5OTIgNzU2LjcyMjM0N2MtMTUuMTIxMDY3IDguNzI0NDgtMTMuMjE2NDI3IDIzLjk4ODkwNyA0LjIzMjUzMyAzNC4wNjUwNjZsMzg4LjUwNTYgMjI0LjMwMzc4N2MxNy40NTU3ODcgMTAuMDc2MTYgNDMuODk1NDY3IDExLjE3NTI1MyA1OS4wMDk3MDcgMi40NTA3NzNsMzk2Ljk3NzQ5My0yMjkuMTk4NTA2YzE1LjExNDI0LTguNzI0NDggMTMuMjE2NDI3LTIzLjk4ODkwNy00LjIzOTM2LTM0LjA2NTA2N2wtMzg4LjUwNTYtMjI0LjMwMzc4N3oiLz48cGF0aCBmaWxsPSIjNDc2MkFGIiBkPSJNNzUuMDkzMzMzIDI0OS44ODMzMDd2NTIxLjYzMjQyNmw0MzQuNTY1MTIgMjUxLjg5MDM0N1Y1MDEuNzczNjUzTDc1LjA5MzMzMyAyNDkuODgzMzA3eiIvPjxwYXRoIGZpbGw9IiM0NzYyQUYiIGQ9Ik01MDcuMjYyMjkzIDQ5NS4zNjM0MTNsNDM2LjkyNzE0Ny0yNDcuMjA3MjUzdjUyNC4zNzY3NDdMNTA3LjI2MjI5MyA2NzkuMDE0NFY0OTUuMzYzNDEzeiIvPjxwYXRoIGZpbGw9IiM2RDhBQ0EiIGQ9Ik01NDEuMjc5NTczIDguMzM1MzZDNTIzLjgzMDYxMy0xLjc0MDggNDk3LjM5MDkzMy0yLjgzMzA2NyA0ODIuMjc2NjkzIDUuODkxNDEzTDg1LjI5OTIgMjM1LjA4MzA5M2MtMTUuMTIxMDY3IDguNzMxMzA3LTEzLjIxNjQyNyAyMy45OTU3MzMgNC4yMzI1MzMgMzQuMDcxODk0bDM4OC41MDU2IDIyNC4zMDM3ODZjMTcuNDU1Nzg3IDEwLjA3NjE2IDQzLjg5NTQ2NyAxMS4xNjg0MjcgNTkuMDA5NzA3IDIuNDQzOTQ3bDM5Ni45Nzc0OTMtMjI5LjE5MTY4YzE1LjExNDI0LTguNzMxMzA3IDEzLjIxNjQyNy0yMy45OTU3MzMtNC4yMzkzNi0zNC4wNzE4OTNMNTQxLjI3OTU3MyA4LjMzNTM2ek0xMTcuODQ4NzQ3IDQzMC4zMDUyOGMwIDE3LjAwNTIyNyAxMC4zNDkyMjcgMzYuNzgyMDggMjMuMTAxNDQgNDQuMTQ4MDUzbDE3OS4wNDI5ODYgMTAzLjM2MjU2YzEyLjc1MjIxMyA3LjM2NTk3MyAyMy4xMDE0NC0wLjQ2NDIxMyAyMy4xMDE0NC0xNy40NjI2MTMgMC0xNy4wMDUyMjctMTAuMzQ5MjI3LTM2Ljc4MjA4LTIzLjEwMTQ0LTQ0LjE0ODA1M0wxNDAuOTUwMTg3IDQxMi44NDI2NjdjLTEyLjc1MjIxMy03LjM2NTk3My0yMy4xMDE0NCAwLjQ2NDIxMy0yMy4xMDE0NCAxNy40NjI2MTN6Ii8+PHBhdGggZmlsbD0iIzYwRTAwMCIgZD0iTTQyOS40NTg3NzMgNTc5LjQxMzMzM2MxNC43MjUxMiA4LjQ5OTIgMjYuNjc4NjEzIDI5LjIwNDQ4IDI2LjY3ODYxNCA0Ni4yMDI4OCAwIDE3LjAwNTIyNy0xMS45NTM0OTMgMjMuOTA2OTg3LTI2LjY3ODYxNCAxNS40MDc3ODctMTQuNzE4MjkzLTguNTA2MDI3LTI2LjY3ODYxMy0yOS4yMTEzMDctMjYuNjc4NjEzLTQ2LjIwOTcwNyAwLTE3LjAwNTIyNyAxMS45NjAzMi0yMy45MDY5ODcgMjYuNjc4NjEzLTE1LjQwMDk2eiIvPjxwYXRoIGZpbGw9IiM2RDhBQ0EiIGQ9Ik0xMTcuODQ4NzQ3IDU2Mi41NjUxMmMwIDE3LjAwNTIyNyAxMC4zNDkyMjcgMzYuNzgyMDggMjMuMTAxNDQgNDQuMTQ4MDUzbDE3OS4wNDI5ODYgMTAzLjM2OTM4N2MxMi43NTIyMTMgNy4zNTkxNDcgMjMuMTAxNDQtMC40NjQyMTMgMjMuMTAxNDQtMTcuNDY5NDQgMC0xNi45OTg0LTEwLjM0OTIyNy0zNi43ODIwOC0yMy4xMDE0NC00NC4xNDEyMjdMMTQwLjk1MDE4NyA1NDUuMTAyNTA3Yy0xMi43NTIyMTMtNy4zNjU5NzMtMjMuMTAxNDQgMC40NjQyMTMtMjMuMTAxNDQgMTcuNDYyNjEzeiIvPjxwYXRoIGZpbGw9IiM2MEUwMDAiIGQ9Ik00MjkuNDU4NzczIDcxMS42NzMxNzNjMTQuNzI1MTIgOC40OTkyIDI2LjY3ODYxMyAyOS4yMDQ0OCAyNi42Nzg2MTQgNDYuMjA5NzA3IDAgMTYuOTk4NC0xMS45NTM0OTMgMjMuOTAwMTYtMjYuNjc4NjE0IDE1LjQwMDk2LTE0LjcxODI5My04LjQ5OTItMjYuNjc4NjEzLTI5LjIwNDQ4LTI2LjY3ODYxMy00Ni4yMDk3MDcgMC0xNi45OTg0IDExLjk2MDMyLTIzLjkwMDE2IDI2LjY3ODYxMy0xNS40MDA5NnoiLz48cGF0aCBmaWxsPSIjNkQ4QUNBIiBkPSJNMTE3Ljg0ODc0NyA2OTQuODMxNzg3YzAgMTYuOTk4NCAxMC4zNDkyMjcgMzYuNzgyMDggMjMuMTAxNDQgNDQuMTQxMjI2bDE3OS4wNDI5ODYgMTAzLjM2OTM4N2MxMi43NTIyMTMgNy4zNTkxNDcgMjMuMTAxNDQtMC40NjQyMTMgMjMuMTAxNDQtMTcuNDY5NDQgMC0xNi45OTg0LTEwLjM0OTIyNy0zNi43ODIwOC0yMy4xMDE0NC00NC4xNDEyMjdMMTQwLjk1MDE4NyA2NzcuMzYyMzQ3Yy0xMi43NTIyMTMtNy4zNTkxNDctMjMuMTAxNDQgMC40NjQyMTMtMjMuMTAxNDQgMTcuNDY5NDR6Ii8+PHBhdGggZmlsbD0iIzYwRTAwMCIgZD0iTTQyOS40NTg3NzMgODQzLjkzMzAxM2MxNC43MjUxMiA4LjQ5OTIgMjYuNjc4NjEzIDI5LjIwNDQ4IDI2LjY3ODYxNCA0Ni4yMDk3MDcgMCAxNi45OTg0LTExLjk1MzQ5MyAyMy45MDAxNi0yNi42Nzg2MTQgMTUuNDAwOTYtMTQuNzE4MjkzLTguNDk5Mi0yNi42Nzg2MTMtMjkuMjA0NDgtMjYuNjc4NjEzLTQ2LjIwOTcwNyAwLTE2Ljk5ODQgMTEuOTYwMzItMjMuOTAwMTYgMjYuNjc4NjEzLTE1LjQwMDk2eiIvPjwvc3ZnPg==;" vertex="1" parent="1">
          <mxGeometry x="522" y="454" width="50" height="50" as="geometry" />
        </mxCell>
        <mxCell id="i5vnB2GfnYcnR_1JJq5a-28" style="edgeStyle=none;shape=connector;rounded=0;hachureGap=4;orthogonalLoop=1;jettySize=auto;html=1;exitX=1;exitY=0.5;exitDx=0;exitDy=0;labelBackgroundColor=default;strokeColor=default;fontFamily=Architects Daughter;fontSource=https%3A%2F%2Ffonts.googleapis.com%2Fcss%3Ffamily%3DArchitects%2BDaughter;fontSize=16;fontColor=default;endArrow=none;endFill=0;" edge="1" parent="1" source="i5vnB2GfnYcnR_1JJq5a-8" target="i5vnB2GfnYcnR_1JJq5a-26">
          <mxGeometry relative="1" as="geometry" />
        </mxCell>
        <mxCell id="i5vnB2GfnYcnR_1JJq5a-8" value="" style="shape=image;verticalLabelPosition=bottom;labelBackgroundColor=default;verticalAlign=top;aspect=fixed;imageAspect=0;image=data:image/svg+xml,PHN2ZyB4bWxuczp4bGluaz0iaHR0cDovL3d3dy53My5vcmcvMTk5OS94bGluayIgeG1sbnM9Imh0dHA6Ly93d3cudzMub3JnLzIwMDAvc3ZnIiBoZWlnaHQ9IjIwMCIgd2lkdGg9IjQyNC4wMjM0Mzc1IiB2ZXJzaW9uPSIxLjEiIHZpZXdCb3g9IjAgMCAyMTcxIDEwMjQiIGNsYXNzPSJpY29uIj48cGF0aCBmaWxsPSIjMzMzMzMzIiBkPSJNMjA2Ny4zMzQyNCAwLjAxNTI1N2gtNTUwLjQyODQ3NWEyOS45MjczNDggMjkuOTI3MzQ4IDAgMCAwIDAgNTguNjgxMDc0aDU1MC40Mjg0NzVhNDMuNDIzOTk1IDQzLjQyMzk5NSAwIDAgMSA0My40MjM5OTUgNDIuODM3MTg0djY2OS41NTEwNTZhNDMuNDIzOTk1IDQzLjQyMzk5NSAwIDAgMS00My40MjM5OTUgNDMuNDIzOTk0SDk2OS40MTEzNDRhMjkuOTI3MzQ4IDI5LjkyNzM0OCAwIDAgMCAwIDU4LjY4MTA3NWg3NTIuODc4MTgxdjEwNC40NTIzMTFhNDYuOTQ0ODU5IDQ2Ljk0NDg1OSAwIDAgMCA0Ni4zNTgwNDggNDYuMzU4MDQ5aDExNy4zNjIxNDhhNDYuMzU4MDQ5IDQ2LjM1ODA0OSAwIDAgMCA0Ni4zNTgwNDktNDYuMzU4MDQ5di0xMDQuNDUyMzExaDEzNS41NTMyODFBMTAyLjEwNTA2OSAxMDIuMTA1MDY5IDAgMCAwIDIxNzEuMTk5NzQxIDc3MS4wODQ1NzFWMTAxLjUzMzUxNUExMDIuMTA1MDY5IDEwMi4xMDUwNjkgMCAwIDAgMjA2Ny4zMzQyNCAwLjAxNTI1N3ogbS0xOTQuMjM0MzU1IDk2NS4zMDM2NjloLTkyLjEyOTI4NnYtOTIuMTI5Mjg2aDkyLjEyOTI4NnpNMzEwLjQyMjg4MiAyNjguNzc0NTc2YTQ2LjM1ODA0OSA0Ni4zNTgwNDkgMCAwIDAtNDYuMzU4MDQ5IDQ2LjM1ODA0OXYyMDUuOTcwNTdhNDYuMzU4MDQ5IDQ2LjM1ODA0OSAwIDAgMCA0Ni4zNTgwNDkgNDYuMzU4MDQ5SDUxNi4zOTM0NTJhNDYuMzU4MDQ5IDQ2LjM1ODA0OSAwIDAgMCA0Ni4zNTgwNDktNDYuMzU4MDQ5VjMxNS4xMzI2MjVhNDYuMzU4MDQ5IDQ2LjM1ODA0OSAwIDAgMC00Ni4zNTgwNDktNDYuMzU4MDQ5eiBtMTkzLjY0NzU0NCAyNDAuMDA1NTkzSDMyMi43NDU5MDhWMzI3LjQ1NTY1MWgxODEuMzI0NTE4ek0xMDAzLjQ0NjM2NyA1MjEuMTAzMTk1VjMxNS4xMzI2MjVhNDYuMzU4MDQ5IDQ2LjM1ODA0OSAwIDAgMC00Ni4zNTgwNDktNDYuMzU4MDQ5SDc1MS4xMTc3NDhhNDYuMzU4MDQ5IDQ2LjM1ODA0OSAwIDAgMC00Ni4zNTgwNDggNDYuMzU4MDQ5djIwNS45NzA1N2E0Ni4zNTgwNDkgNDYuMzU4MDQ5IDAgMCAwIDQ2LjM1ODA0OCA0Ni4zNTgwNDloMjA1Ljk3MDU3YTQ2LjM1ODA0OSA0Ni4zNTgwNDkgMCAwIDAgNDYuMzU4MDQ5LTQ2LjM1ODA0OXogbS01OC42ODEwNzQtMTIuMzIzMDI2SDc2Mi44NTM5NjNWMzI3LjQ1NTY1MWgxODEuOTExMzN6Ii8+PHBhdGggZmlsbD0iIzMzMzMzMyIgZD0iTTExNDUuNDU0NTY2IDMxNS4xMzI2MjV2MjA1Ljk3MDU3YTQ2LjM1ODA0OSA0Ni4zNTgwNDkgMCAwIDAgNDYuMzU4MDQ5IDQ2LjM1ODA0OWgyMDUuOTcwNTdhNDYuMzU4MDQ5IDQ2LjM1ODA0OSAwIDAgMCA0Ni4zNTgwNDgtNDYuMzU4MDQ5VjMxNS4xMzI2MjVhNDYuMzU4MDQ5IDQ2LjM1ODA0OSAwIDAgMC00Ni4zNTgwNDgtNDYuMzU4MDQ5aC0yMDUuOTcwNTdhNDYuMzU4MDQ5IDQ2LjM1ODA0OSAwIDAgMC00Ni4zNTgwNDkgNDYuMzU4MDQ5eiBtNTguNjgxMDc0IDEyLjMyMzAyNmgxODEuMzI0NTE5djE4MS4zMjQ1MThoLTE4MS4zMjQ1MTl6TTE4MzguNDc4MDUxIDU2Ny40NjEyNDRhNDYuMzU4MDQ5IDQ2LjM1ODA0OSAwIDAgMCA0Ni45NDQ4Ni00Ni4zNTgwNDlWMzE1LjEzMjYyNWE0Ni4zNTgwNDkgNDYuMzU4MDQ5IDAgMCAwLTQ2Ljk0NDg2LTQ2LjM1ODA0OWgtMjA1Ljk3MDU3YTQ2LjM1ODA0OSA0Ni4zNTgwNDkgMCAwIDAtNDYuMzU4MDQ4IDQ2LjM1ODA0OXYyMDUuOTcwNTdhNDYuMzU4MDQ5IDQ2LjM1ODA0OSAwIDAgMCA0Ni4zNTgwNDggNDYuMzU4MDQ5ek0xNjQzLjA3MDA3NSAzMjcuNDU1NjUxaDE4MS45MTEzMjl2MTgxLjMyNDUxOEgxNjQzLjA3MDA3NXpNMTM2NS41MDg1OTQgNTguNjk2MzMxYTI4Ljc1MzcyNiAyOC43NTM3MjYgMCAwIDAgMjguNzUzNzI2LTI5LjM0MDUzNyAyOS4zNDA1MzcgMjkuMzQwNTM3IDAgMSAwLTI4Ljc1MzcyNiAyOS4zNDA1Mzd6Ii8+PHBhdGggZmlsbD0iIzMzMzMzMyIgZD0iTTg0My44MzM4NDUgODQzLjI2MjI5Mm0tMjkuMzQwNTM3IDBhMjkuMzQwNTM3IDI5LjM0MDUzNyAwIDEgMCA1OC42ODEwNzUgMCAyOS4zNDA1MzcgMjkuMzQwNTM3IDAgMSAwLTU4LjY4MTA3NSAwWiIvPjxwYXRoIGZpbGw9IiMzMzMzMzMiIGQ9Ik02ODQuMjIxMzI0IDgxMy45MjE3NTVIMTAxLjUxODI1OGE0My40MjM5OTUgNDMuNDIzOTk1IDAgMCAxLTQyLjgzNzE4NC00Mi44MzcxODRWMTAxLjUzMzUxNUE0Mi44MzcxODQgNDIuODM3MTg0IDAgMCAxIDEwMS41MTgyNTggNTguNjk2MzMxaDExMTQuOTQwNDA4YTI5LjkyNzM0OCAyOS45MjczNDggMCAwIDAgMC01OC42ODEwNzRoLTExMTQuOTQwNDA4QTEwMi4xMDUwNjkgMTAyLjEwNTA2OSAwIDAgMCAwIDEwMS41MzM1MTV2NjY5LjU1MTA1NmExMDIuMTA1MDY5IDEwMi4xMDUwNjkgMCAwIDAgMTAxLjUxODI1OCAxMDIuMTA1MDY5aDE2My43MjAxOTd2MTA0LjQ1MjMxMWE0Ni45NDQ4NTkgNDYuOTQ0ODU5IDAgMCAwIDQ2LjM1ODA0OCA0Ni4zNTgwNDloMTE3LjM2MjE0OWE0Ni4zNTgwNDkgNDYuMzU4MDQ5IDAgMCAwIDQ2LjM1ODA0OC00Ni4zNTgwNDl2LTEwNC40NTIzMTFoMjA5LjQ5MTQzNWEyOS45MjczNDggMjkuOTI3MzQ4IDAgMCAwIDAtNTguNjgxMDc1eiBtLTI2OC4xNzI1MDkgMTUxLjM5NzE3MUgzMjMuOTE5NTI5di05Mi4xMjkyODZoOTIuMTI5Mjg2eiIvPjwvc3ZnPg==;" vertex="1" parent="1">
          <mxGeometry x="530" y="360" width="110" height="51.9" as="geometry" />
        </mxCell>
        <mxCell id="i5vnB2GfnYcnR_1JJq5a-9" style="shape=connector;rounded=0;hachureGap=4;orthogonalLoop=1;jettySize=auto;html=1;exitX=0.5;exitY=0;exitDx=0;exitDy=0;labelBackgroundColor=default;strokeColor=default;fontFamily=Architects Daughter;fontSource=https%3A%2F%2Ffonts.googleapis.com%2Fcss%3Ffamily%3DArchitects%2BDaughter;fontSize=16;fontColor=default;endArrow=none;endFill=0;" edge="1" parent="1" source="i5vnB2GfnYcnR_1JJq5a-10">
          <mxGeometry relative="1" as="geometry">
            <mxPoint x="630" y="410" as="targetPoint" />
          </mxGeometry>
        </mxCell>
        <mxCell id="i5vnB2GfnYcnR_1JJq5a-10" value="" style="shape=image;verticalLabelPosition=bottom;labelBackgroundColor=default;verticalAlign=top;aspect=fixed;imageAspect=0;image=data:image/svg+xml,PHN2ZyB4bWxuczp4bGluaz0iaHR0cDovL3d3dy53My5vcmcvMTk5OS94bGluayIgeG1sbnM9Imh0dHA6Ly93d3cudzMub3JnLzIwMDAvc3ZnIiBoZWlnaHQ9IjIwMCIgd2lkdGg9IjIwMCIgdmVyc2lvbj0iMS4xIiB2aWV3Qm94PSIwIDAgMTAyNCAxMDI0IiBjbGFzcz0iaWNvbiI+PHBhdGggZmlsbD0iIzQ3NjJBRiIgZD0iTTU0MS4yNzk1NzMgNTI5Ljk3NDYxM2MtMTcuNDQ4OTYtMTAuMDc2MTYtNDMuODg4NjQtMTEuMTc1MjUzLTU5LjAwMjg4LTIuNDUwNzczTDg1LjI5OTIgNzU2LjcyMjM0N2MtMTUuMTIxMDY3IDguNzI0NDgtMTMuMjE2NDI3IDIzLjk4ODkwNyA0LjIzMjUzMyAzNC4wNjUwNjZsMzg4LjUwNTYgMjI0LjMwMzc4N2MxNy40NTU3ODcgMTAuMDc2MTYgNDMuODk1NDY3IDExLjE3NTI1MyA1OS4wMDk3MDcgMi40NTA3NzNsMzk2Ljk3NzQ5My0yMjkuMTk4NTA2YzE1LjExNDI0LTguNzI0NDggMTMuMjE2NDI3LTIzLjk4ODkwNy00LjIzOTM2LTM0LjA2NTA2N2wtMzg4LjUwNTYtMjI0LjMwMzc4N3oiLz48cGF0aCBmaWxsPSIjNDc2MkFGIiBkPSJNNzUuMDkzMzMzIDI0OS44ODMzMDd2NTIxLjYzMjQyNmw0MzQuNTY1MTIgMjUxLjg5MDM0N1Y1MDEuNzczNjUzTDc1LjA5MzMzMyAyNDkuODgzMzA3eiIvPjxwYXRoIGZpbGw9IiM0NzYyQUYiIGQ9Ik01MDcuMjYyMjkzIDQ5NS4zNjM0MTNsNDM2LjkyNzE0Ny0yNDcuMjA3MjUzdjUyNC4zNzY3NDdMNTA3LjI2MjI5MyA2NzkuMDE0NFY0OTUuMzYzNDEzeiIvPjxwYXRoIGZpbGw9IiM2RDhBQ0EiIGQ9Ik01NDEuMjc5NTczIDguMzM1MzZDNTIzLjgzMDYxMy0xLjc0MDggNDk3LjM5MDkzMy0yLjgzMzA2NyA0ODIuMjc2NjkzIDUuODkxNDEzTDg1LjI5OTIgMjM1LjA4MzA5M2MtMTUuMTIxMDY3IDguNzMxMzA3LTEzLjIxNjQyNyAyMy45OTU3MzMgNC4yMzI1MzMgMzQuMDcxODk0bDM4OC41MDU2IDIyNC4zMDM3ODZjMTcuNDU1Nzg3IDEwLjA3NjE2IDQzLjg5NTQ2NyAxMS4xNjg0MjcgNTkuMDA5NzA3IDIuNDQzOTQ3bDM5Ni45Nzc0OTMtMjI5LjE5MTY4YzE1LjExNDI0LTguNzMxMzA3IDEzLjIxNjQyNy0yMy45OTU3MzMtNC4yMzkzNi0zNC4wNzE4OTNMNTQxLjI3OTU3MyA4LjMzNTM2ek0xMTcuODQ4NzQ3IDQzMC4zMDUyOGMwIDE3LjAwNTIyNyAxMC4zNDkyMjcgMzYuNzgyMDggMjMuMTAxNDQgNDQuMTQ4MDUzbDE3OS4wNDI5ODYgMTAzLjM2MjU2YzEyLjc1MjIxMyA3LjM2NTk3MyAyMy4xMDE0NC0wLjQ2NDIxMyAyMy4xMDE0NC0xNy40NjI2MTMgMC0xNy4wMDUyMjctMTAuMzQ5MjI3LTM2Ljc4MjA4LTIzLjEwMTQ0LTQ0LjE0ODA1M0wxNDAuOTUwMTg3IDQxMi44NDI2NjdjLTEyLjc1MjIxMy03LjM2NTk3My0yMy4xMDE0NCAwLjQ2NDIxMy0yMy4xMDE0NCAxNy40NjI2MTN6Ii8+PHBhdGggZmlsbD0iIzYwRTAwMCIgZD0iTTQyOS40NTg3NzMgNTc5LjQxMzMzM2MxNC43MjUxMiA4LjQ5OTIgMjYuNjc4NjEzIDI5LjIwNDQ4IDI2LjY3ODYxNCA0Ni4yMDI4OCAwIDE3LjAwNTIyNy0xMS45NTM0OTMgMjMuOTA2OTg3LTI2LjY3ODYxNCAxNS40MDc3ODctMTQuNzE4MjkzLTguNTA2MDI3LTI2LjY3ODYxMy0yOS4yMTEzMDctMjYuNjc4NjEzLTQ2LjIwOTcwNyAwLTE3LjAwNTIyNyAxMS45NjAzMi0yMy45MDY5ODcgMjYuNjc4NjEzLTE1LjQwMDk2eiIvPjxwYXRoIGZpbGw9IiM2RDhBQ0EiIGQ9Ik0xMTcuODQ4NzQ3IDU2Mi41NjUxMmMwIDE3LjAwNTIyNyAxMC4zNDkyMjcgMzYuNzgyMDggMjMuMTAxNDQgNDQuMTQ4MDUzbDE3OS4wNDI5ODYgMTAzLjM2OTM4N2MxMi43NTIyMTMgNy4zNTkxNDcgMjMuMTAxNDQtMC40NjQyMTMgMjMuMTAxNDQtMTcuNDY5NDQgMC0xNi45OTg0LTEwLjM0OTIyNy0zNi43ODIwOC0yMy4xMDE0NC00NC4xNDEyMjdMMTQwLjk1MDE4NyA1NDUuMTAyNTA3Yy0xMi43NTIyMTMtNy4zNjU5NzMtMjMuMTAxNDQgMC40NjQyMTMtMjMuMTAxNDQgMTcuNDYyNjEzeiIvPjxwYXRoIGZpbGw9IiM2MEUwMDAiIGQ9Ik00MjkuNDU4NzczIDcxMS42NzMxNzNjMTQuNzI1MTIgOC40OTkyIDI2LjY3ODYxMyAyOS4yMDQ0OCAyNi42Nzg2MTQgNDYuMjA5NzA3IDAgMTYuOTk4NC0xMS45NTM0OTMgMjMuOTAwMTYtMjYuNjc4NjE0IDE1LjQwMDk2LTE0LjcxODI5My04LjQ5OTItMjYuNjc4NjEzLTI5LjIwNDQ4LTI2LjY3ODYxMy00Ni4yMDk3MDcgMC0xNi45OTg0IDExLjk2MDMyLTIzLjkwMDE2IDI2LjY3ODYxMy0xNS40MDA5NnoiLz48cGF0aCBmaWxsPSIjNkQ4QUNBIiBkPSJNMTE3Ljg0ODc0NyA2OTQuODMxNzg3YzAgMTYuOTk4NCAxMC4zNDkyMjcgMzYuNzgyMDggMjMuMTAxNDQgNDQuMTQxMjI2bDE3OS4wNDI5ODYgMTAzLjM2OTM4N2MxMi43NTIyMTMgNy4zNTkxNDcgMjMuMTAxNDQtMC40NjQyMTMgMjMuMTAxNDQtMTcuNDY5NDQgMC0xNi45OTg0LTEwLjM0OTIyNy0zNi43ODIwOC0yMy4xMDE0NC00NC4xNDEyMjdMMTQwLjk1MDE4NyA2NzcuMzYyMzQ3Yy0xMi43NTIyMTMtNy4zNTkxNDctMjMuMTAxNDQgMC40NjQyMTMtMjMuMTAxNDQgMTcuNDY5NDR6Ii8+PHBhdGggZmlsbD0iIzYwRTAwMCIgZD0iTTQyOS40NTg3NzMgODQzLjkzMzAxM2MxNC43MjUxMiA4LjQ5OTIgMjYuNjc4NjEzIDI5LjIwNDQ4IDI2LjY3ODYxNCA0Ni4yMDk3MDcgMCAxNi45OTg0LTExLjk1MzQ5MyAyMy45MDAxNi0yNi42Nzg2MTQgMTUuNDAwOTYtMTQuNzE4MjkzLTguNDk5Mi0yNi42Nzg2MTMtMjkuMjA0NDgtMjYuNjc4NjEzLTQ2LjIwOTcwNyAwLTE2Ljk5ODQgMTEuOTYwMzItMjMuOTAwMTYgMjYuNjc4NjEzLTE1LjQwMDk2eiIvPjwvc3ZnPg==;" vertex="1" parent="1">
          <mxGeometry x="606" y="455" width="50" height="50" as="geometry" />
        </mxCell>
        <mxCell id="i5vnB2GfnYcnR_1JJq5a-11" value="" style="shape=connector;rounded=0;hachureGap=4;orthogonalLoop=1;jettySize=auto;html=1;labelBackgroundColor=default;strokeColor=default;fontFamily=Architects Daughter;fontSource=https%3A%2F%2Ffonts.googleapis.com%2Fcss%3Ffamily%3DArchitects%2BDaughter;fontSize=16;fontColor=default;endArrow=none;endFill=0;" edge="1" parent="1" source="i5vnB2GfnYcnR_1JJq5a-8" target="i5vnB2GfnYcnR_1JJq5a-13">
          <mxGeometry relative="1" as="geometry">
            <mxPoint x="330" y="385.94999999999993" as="targetPoint" />
            <mxPoint x="580" y="386" as="sourcePoint" />
          </mxGeometry>
        </mxCell>
        <mxCell id="i5vnB2GfnYcnR_1JJq5a-12" style="shape=connector;rounded=0;hachureGap=4;orthogonalLoop=1;jettySize=auto;html=1;exitX=0;exitY=0.5;exitDx=0;exitDy=0;labelBackgroundColor=default;strokeColor=default;fontFamily=Architects Daughter;fontSource=https%3A%2F%2Ffonts.googleapis.com%2Fcss%3Ffamily%3DArchitects%2BDaughter;fontSize=16;fontColor=default;endArrow=none;endFill=0;" edge="1" parent="1">
          <mxGeometry relative="1" as="geometry">
            <mxPoint x="335" y="386.2380952380952" as="targetPoint" />
            <mxPoint x="375" y="386.4749999999999" as="sourcePoint" />
          </mxGeometry>
        </mxCell>
        <mxCell id="i5vnB2GfnYcnR_1JJq5a-13" value="Virtual Nat Device" style="rounded=0;whiteSpace=wrap;html=1;hachureGap=4;fontFamily=Lucida Console;fontSize=7;fillColor=#fff2cc;strokeColor=#d6b656;fontStyle=1" vertex="1" parent="1">
          <mxGeometry x="370" y="376" width="60" height="20.95" as="geometry" />
        </mxCell>
        <mxCell id="i5vnB2GfnYcnR_1JJq5a-14" value="&lt;font face=&quot;Comic Sans MS&quot; style=&quot;font-size: 10px;&quot;&gt;Vmnet8 Switch&lt;/font&gt;" style="text;html=1;align=center;verticalAlign=middle;resizable=0;points=[];autosize=1;strokeColor=none;fillColor=none;fontSize=10;fontFamily=Architects Daughter;fontColor=default;fontStyle=1" vertex="1" parent="1">
          <mxGeometry x="535" y="335" width="100" height="30" as="geometry" />
        </mxCell>
        <mxCell id="i5vnB2GfnYcnR_1JJq5a-15" value="&lt;font face=&quot;Comic Sans MS&quot; style=&quot;font-size: 10px;&quot;&gt;Internet&lt;/font&gt;" style="text;html=1;align=center;verticalAlign=middle;resizable=0;points=[];autosize=1;strokeColor=none;fillColor=none;fontSize=10;fontFamily=Architects Daughter;fontColor=default;fontStyle=1" vertex="1" parent="1">
          <mxGeometry x="305" y="228" width="60" height="30" as="geometry" />
        </mxCell>
        <mxCell id="i5vnB2GfnYcnR_1JJq5a-16" style="edgeStyle=orthogonalEdgeStyle;shape=connector;rounded=0;hachureGap=4;orthogonalLoop=1;jettySize=auto;html=1;exitX=0.5;exitY=0;exitDx=0;exitDy=0;entryX=0.5;entryY=1;entryDx=0;entryDy=0;labelBackgroundColor=default;strokeColor=default;fontFamily=Architects Daughter;fontSource=https%3A%2F%2Ffonts.googleapis.com%2Fcss%3Ffamily%3DArchitects%2BDaughter;fontSize=16;fontColor=default;endArrow=none;endFill=0;" edge="1" parent="1" source="i5vnB2GfnYcnR_1JJq5a-17" target="i5vnB2GfnYcnR_1JJq5a-1">
          <mxGeometry relative="1" as="geometry" />
        </mxCell>
        <mxCell id="i5vnB2GfnYcnR_1JJq5a-17" value="" style="shape=image;verticalLabelPosition=bottom;labelBackgroundColor=default;verticalAlign=top;aspect=fixed;imageAspect=0;image=data:image/svg+xml,PHN2ZyB4bWxuczp4bGluaz0iaHR0cDovL3d3dy53My5vcmcvMTk5OS94bGluayIgeG1sbnM9Imh0dHA6Ly93d3cudzMub3JnLzIwMDAvc3ZnIiBoZWlnaHQ9IjIwMCIgd2lkdGg9IjIwMCIgdmVyc2lvbj0iMS4xIiB2aWV3Qm94PSIwIDAgMTAyNCAxMDI0IiBjbGFzcz0iaWNvbiI+PHBhdGggZmlsbD0iIzEzMjI3YSIgZD0iTTk4OC40MTYgODIxLjIxNmwxLjUwNC0wLjU3Ni0xMDEuNTA0LTI2Ny4zMjhBNjQuMzIgNjQuMzIgMCAwIDAgODI4LjYwOCA1MTJoLTIwLjYwOFYxMTJhMzIgMzIgMCAxIDAtNjQgMFY1MTJINTQ0VjExMmEzMiAzMiAwIDEgMC02NCAwVjUxMkgyNzJWMTEyYTMyIDMyIDAgMCAwLTY0IDBWNTEyaC0xMi42MDhhNjQuMzIgNjQuMzIgMCAwIDAtNTkuODQgNDEuMzEybC0xMDEuNDcyIDI2Ny4zMjggMS41MDQgMC41NzZjLTIuMTEyIDguNjQtMy41ODQgMTcuNTA0LTMuNTg0IDI2Ljc4NEMzMiA5MDkuNzYgODIuMjQgOTYwIDE0NCA5NjBoNzM2YzYxLjc2IDAgMTEyLTUwLjI0IDExMi0xMTIgMC05LjI4LTEuNDcyLTE4LjE0NC0zLjU4NC0yNi43ODR6TTE5NS4zOTIgNTc2aDYzMy4xODRsNjEuMTIgMTYwLjk5MmMtMy4yMzItMC4yODgtNi4zNjgtMC45OTItOS42OTYtMC45OTJoLTczNmMtMy4zMjggMC02LjQ2NCAwLjcwNC05LjY5NiAwLjk5MkwxOTUuMzkyIDU3NnpNODgwIDg5NmgtNzM2Yy0yNi40NjQgMC00OC0yMS41MzYtNDgtNDhTMTE3LjUzNiA4MDAgMTQ0IDgwMGg3MzZjMjYuNDY0IDAgNDggMjEuNTM2IDQ4IDQ4cy0yMS41MzYgNDgtNDggNDh6Ii8+PC9zdmc+;" vertex="1" parent="1">
          <mxGeometry x="321.5" y="306" width="29" height="29" as="geometry" />
        </mxCell>
        <mxCell id="i5vnB2GfnYcnR_1JJq5a-18" value="&lt;font face=&quot;Comic Sans MS&quot; style=&quot;font-size: 8px;&quot;&gt;&lt;b&gt;Physical Host:192.168.126.1&lt;/b&gt;&lt;/font&gt;" style="text;html=1;align=center;verticalAlign=middle;resizable=0;points=[];autosize=1;strokeColor=none;fillColor=none;fontSize=8;fontFamily=Architects Daughter;fontColor=#B85450;" vertex="1" parent="1">
          <mxGeometry x="341" y="478" width="140" height="20" as="geometry" />
        </mxCell>
        <mxCell id="i5vnB2GfnYcnR_1JJq5a-19" value="&lt;font face=&quot;Comic Sans MS&quot; style=&quot;font-size: 8px;&quot;&gt;Router:192.168.1.1&lt;/font&gt;" style="text;html=1;align=center;verticalAlign=middle;resizable=0;points=[];autosize=1;strokeColor=none;fillColor=none;fontSize=8;fontFamily=Architects Daughter;fontColor=default;fontStyle=1" vertex="1" parent="1">
          <mxGeometry x="339" y="313" width="100" height="20" as="geometry" />
        </mxCell>
        <mxCell id="i5vnB2GfnYcnR_1JJq5a-20" value="&lt;font face=&quot;Comic Sans MS&quot; style=&quot;font-size: 8px;&quot;&gt;&lt;b&gt;Kali1:192.168.126.170&lt;/b&gt;&lt;/font&gt;" style="text;html=1;align=center;verticalAlign=middle;resizable=0;points=[];autosize=1;strokeColor=none;fillColor=none;fontSize=8;fontFamily=Architects Daughter;fontColor=#B85450;" vertex="1" parent="1">
          <mxGeometry x="476" y="507" width="110" height="20" as="geometry" />
        </mxCell>
        <mxCell id="i5vnB2GfnYcnR_1JJq5a-21" value="&lt;font face=&quot;Comic Sans MS&quot; style=&quot;font-size: 8px;&quot;&gt;Kali2:192.168.126.144&lt;/font&gt;" style="text;html=1;align=center;verticalAlign=middle;resizable=0;points=[];autosize=1;strokeColor=none;fillColor=none;fontSize=8;fontFamily=Architects Daughter;fontColor=#B85450;fontStyle=1" vertex="1" parent="1">
          <mxGeometry x="583" y="506" width="110" height="20" as="geometry" />
        </mxCell>
        <mxCell id="i5vnB2GfnYcnR_1JJq5a-23" style="shape=connector;rounded=0;hachureGap=4;orthogonalLoop=1;jettySize=auto;html=1;exitX=0;exitY=0.75;exitDx=0;exitDy=0;labelBackgroundColor=default;strokeColor=default;fontFamily=Architects Daughter;fontSource=https%3A%2F%2Ffonts.googleapis.com%2Fcss%3Ffamily%3DArchitects%2BDaughter;fontSize=16;fontColor=default;endArrow=none;endFill=0;" edge="1" parent="1" source="i5vnB2GfnYcnR_1JJq5a-22" target="i5vnB2GfnYcnR_1JJq5a-5">
          <mxGeometry relative="1" as="geometry" />
        </mxCell>
        <mxCell id="i5vnB2GfnYcnR_1JJq5a-24" style="edgeStyle=none;shape=connector;rounded=0;hachureGap=4;orthogonalLoop=1;jettySize=auto;html=1;exitX=1;exitY=0.25;exitDx=0;exitDy=0;entryX=0;entryY=0.5;entryDx=0;entryDy=0;labelBackgroundColor=default;strokeColor=default;fontFamily=Architects Daughter;fontSource=https%3A%2F%2Ffonts.googleapis.com%2Fcss%3Ffamily%3DArchitects%2BDaughter;fontSize=16;fontColor=default;endArrow=none;endFill=0;" edge="1" parent="1" source="i5vnB2GfnYcnR_1JJq5a-22" target="i5vnB2GfnYcnR_1JJq5a-8">
          <mxGeometry relative="1" as="geometry" />
        </mxCell>
        <mxCell id="i5vnB2GfnYcnR_1JJq5a-22" value="" style="shape=image;verticalLabelPosition=bottom;labelBackgroundColor=default;verticalAlign=top;aspect=fixed;imageAspect=0;image=data:image/svg+xml,PHN2ZyB4bWxuczp4bGluaz0iaHR0cDovL3d3dy53My5vcmcvMTk5OS94bGluayIgeG1sbnM9Imh0dHA6Ly93d3cudzMub3JnLzIwMDAvc3ZnIiBoZWlnaHQ9IjIwMCIgd2lkdGg9IjIwMCIgdmVyc2lvbj0iMS4xIiB2aWV3Qm94PSIwIDAgMTAyNCAxMDI0IiBjbGFzcz0iaWNvbiI+PHBhdGggZmlsbD0iIzEzMjI3YSIgZD0iTTgzMiAxOTJIMTcwLjY2NjY2N1YxMzguNjY2NjY3QzE3MC42NjY2NjcgMTIxLjYgMTU1LjczMzMzMyAxMDYuNjY2NjY3IDEzOC42NjY2NjcgMTA2LjY2NjY2N1MxMDYuNjY2NjY3IDEyMS42IDEwNi42NjY2NjcgMTM4LjY2NjY2N3Y3NDYuNjY2NjY2YzAgMTcuMDY2NjY3IDE0LjkzMzMzMyAzMiAzMiAzMlMxNzAuNjY2NjY3IDkwMi40IDE3MC42NjY2NjcgODg1LjMzMzMzM1Y3NjhoMTA2LjY2NjY2NnY0Mi42NjY2NjdjMCAyMy40NjY2NjcgMTkuMiA0Mi42NjY2NjcgNDIuNjY2NjY3IDQyLjY2NjY2Nmg0MjYuNjY2NjY3YzIzLjQ2NjY2NyAwIDQyLjY2NjY2Ny0xOS4yIDQyLjY2NjY2Ni00Mi42NjY2NjZ2LTQyLjY2NjY2N2g0Mi42NjY2NjdjNDYuOTMzMzMzIDAgODUuMzMzMzMzLTM4LjQgODUuMzMzMzMzLTg1LjMzMzMzM1YyNzcuMzMzMzMzYzAtNDYuOTMzMzMzLTM4LjQtODUuMzMzMzMzLTg1LjMzMzMzMy04NS4zMzMzMzN6TTQwNS4zMzMzMzMgNzQ2LjY2NjY2N2MwIDE3LjA2NjY2Ny0xNC45MzMzMzMgMzItMzIgMzJTMzQxLjMzMzMzMyA3NjMuNzMzMzMzIDM0MS4zMzMzMzMgNzQ2LjY2NjY2N3YtNDIuNjY2NjY3YzAtMTcuMDY2NjY3IDE0LjkzMzMzMy0zMiAzMi0zMnMzMiAxNC45MzMzMzMgMzIgMzJ2NDIuNjY2NjY3eiBtMTA2LjY2NjY2NyAwYzAgMTcuMDY2NjY3LTE0LjkzMzMzMyAzMi0zMiAzMlM0NDggNzYzLjczMzMzMyA0NDggNzQ2LjY2NjY2N3YtNDIuNjY2NjY3YzAtMTcuMDY2NjY3IDE0LjkzMzMzMy0zMiAzMi0zMnMzMiAxNC45MzMzMzMgMzIgMzJ2NDIuNjY2NjY3eiBtMC0xNzAuNjY2NjY3Yy0xNy4wNjY2NjcgMC0zMi0xNC45MzMzMzMtMzItMzIgMC0xMi44IDguNTMzMzMzLTIzLjQ2NjY2NyAxOS4yLTI5Ljg2NjY2NyAyLjEzMzMzMyAwIDQuMjY2NjY3LTIuMTMzMzMzIDQuMjY2NjY3LTIuMTMzMzMzaDEyLjhjMi4xMzMzMzMgMCA0LjI2NjY2NyAwIDQuMjY2NjY2IDIuMTMzMzMzIDEwLjY2NjY2NyA0LjI2NjY2NyAxOS4yIDE3LjA2NjY2NyAxOS4yIDI5Ljg2NjY2NyA0LjI2NjY2NyAxNy4wNjY2NjctMTAuNjY2NjY3IDMyLTI3LjczMzMzMyAzMnogbTEwNi42NjY2NjcgMTcwLjY2NjY2N2MwIDE3LjA2NjY2Ny0xNC45MzMzMzMgMzItMzIgMzJTNTU0LjY2NjY2NyA3NjMuNzMzMzMzIDU1NC42NjY2NjcgNzQ2LjY2NjY2N3YtNDIuNjY2NjY3YzAtMTcuMDY2NjY3IDE0LjkzMzMzMy0zMiAzMi0zMnMzMiAxNC45MzMzMzMgMzIgMzJ2NDIuNjY2NjY3eiBtLTMyLTI0NS4zMzMzMzRjLTguNTMzMzMzIDAtMTcuMDY2NjY3LTQuMjY2NjY3LTIzLjQ2NjY2Ny04LjUzMzMzMy0xMi44LTEyLjgtMzItMjEuMzMzMzMzLTUzLjMzMzMzMy0yMS4zMzMzMzNzLTM4LjQgOC41MzMzMzMtNTMuMzMzMzM0IDIzLjQ2NjY2NmMtNi40IDYuNC0xMi44IDguNTMzMzMzLTIzLjQ2NjY2NiA4LjUzMzMzNC0xNy4wNjY2NjcgMC0zMi0xNC45MzMzMzMtMzItMzIgMC04LjUzMzMzMyA0LjI2NjY2Ny0xNy4wNjY2NjcgOC41MzMzMzMtMjMuNDY2NjY3IDI1LjYtMjUuNiA1OS43MzMzMzMtNDAuNTMzMzMzIDk4LjEzMzMzMy00MC41MzMzMzNzNzIuNTMzMzMzIDE0LjkzMzMzMyA5OC4xMzMzMzQgNDAuNTMzMzMzYzYuNCA2LjQgOC41MzMzMzMgMTIuOCA4LjUzMzMzMyAyMS4zMzMzMzMgNC4yNjY2NjcgMTcuMDY2NjY3LTEwLjY2NjY2NyAzMi0yNy43MzMzMzMgMzJ6IG01My4zMzMzMzMtODUuMzMzMzMzQzYwOCAzODQgNTYxLjA2NjY2NyAzNjIuNjY2NjY3IDUxMiAzNjIuNjY2NjY3cy05NiAyMS4zMzMzMzMtMTI4IDUzLjMzMzMzM2MtNi40IDYuNC0xNC45MzMzMzMgMTAuNjY2NjY3LTIzLjQ2NjY2NyAxMC42NjY2NjctMTcuMDY2NjY3IDAtMzItMTQuOTMzMzMzLTMyLTMyIDAtOC41MzMzMzMgNC4yNjY2NjctMTcuMDY2NjY3IDEwLjY2NjY2Ny0yMy40NjY2NjdDMzg0IDMyNi40IDQ0My43MzMzMzMgMjk4LjY2NjY2NyA1MTIgMjk4LjY2NjY2N2M2Ni4xMzMzMzMgMCAxMjUuODY2NjY3IDI1LjYgMTY4LjUzMzMzMyA2OC4yNjY2NjZsMi4xMzMzMzQgMi4xMzMzMzRjNC4yNjY2NjcgNi40IDguNTMzMzMzIDEyLjggOC41MzMzMzMgMjEuMzMzMzMzIDAgMTcuMDY2NjY3LTE0LjkzMzMzMyAzMi0zMiAzMi02LjQgMi4xMzMzMzMtMTIuOC0yLjEzMzMzMy0xOS4yLTYuNHpNNzI1LjMzMzMzMyA3NDYuNjY2NjY3YzAgMTcuMDY2NjY3LTE0LjkzMzMzMyAzMi0zMiAzMlM2NjEuMzMzMzMzIDc2My43MzMzMzMgNjYxLjMzMzMzMyA3NDYuNjY2NjY3di00Mi42NjY2NjdjMC0xNy4wNjY2NjcgMTQuOTMzMzMzLTMyIDMyLTMyczMyIDE0LjkzMzMzMyAzMiAzMnY0Mi42NjY2Njd6Ii8+PC9zdmc+;" vertex="1" parent="1">
          <mxGeometry x="400" y="435" width="20" height="20" as="geometry" />
        </mxCell>
        <mxCell id="i5vnB2GfnYcnR_1JJq5a-25" value="&lt;font face=&quot;Comic Sans MS&quot; style=&quot;font-size: 8px;&quot;&gt;NIC2：Vmnet8 NIC&lt;/font&gt;" style="text;html=1;align=center;verticalAlign=middle;resizable=0;points=[];autosize=1;strokeColor=none;fillColor=none;fontSize=8;fontFamily=Architects Daughter;fontColor=default;fontStyle=1" vertex="1" parent="1">
          <mxGeometry x="380" y="451" width="100" height="20" as="geometry" />
        </mxCell>
        <mxCell id="i5vnB2GfnYcnR_1JJq5a-26" value="" style="shape=image;verticalLabelPosition=bottom;labelBackgroundColor=default;verticalAlign=top;aspect=fixed;imageAspect=0;image=data:image/svg+xml,PHN2ZyB4bWxuczp4bGluaz0iaHR0cDovL3d3dy53My5vcmcvMTk5OS94bGluayIgeG1sbnM9Imh0dHA6Ly93d3cudzMub3JnLzIwMDAvc3ZnIiBoZWlnaHQ9IjIwMCIgd2lkdGg9IjIwMCIgdmVyc2lvbj0iMS4xIiB2aWV3Qm94PSIwIDAgMTAyNCAxMDI0IiBjbGFzcz0iaWNvbiI+PHBhdGggZmlsbD0iIzQ3NjJBRiIgZD0iTTU0MS4yNzk1NzMgNTI5Ljk3NDYxM2MtMTcuNDQ4OTYtMTAuMDc2MTYtNDMuODg4NjQtMTEuMTc1MjUzLTU5LjAwMjg4LTIuNDUwNzczTDg1LjI5OTIgNzU2LjcyMjM0N2MtMTUuMTIxMDY3IDguNzI0NDgtMTMuMjE2NDI3IDIzLjk4ODkwNyA0LjIzMjUzMyAzNC4wNjUwNjZsMzg4LjUwNTYgMjI0LjMwMzc4N2MxNy40NTU3ODcgMTAuMDc2MTYgNDMuODk1NDY3IDExLjE3NTI1MyA1OS4wMDk3MDcgMi40NTA3NzNsMzk2Ljk3NzQ5My0yMjkuMTk4NTA2YzE1LjExNDI0LTguNzI0NDggMTMuMjE2NDI3LTIzLjk4ODkwNy00LjIzOTM2LTM0LjA2NTA2N2wtMzg4LjUwNTYtMjI0LjMwMzc4N3oiLz48cGF0aCBmaWxsPSIjNDc2MkFGIiBkPSJNNzUuMDkzMzMzIDI0OS44ODMzMDd2NTIxLjYzMjQyNmw0MzQuNTY1MTIgMjUxLjg5MDM0N1Y1MDEuNzczNjUzTDc1LjA5MzMzMyAyNDkuODgzMzA3eiIvPjxwYXRoIGZpbGw9IiM0NzYyQUYiIGQ9Ik01MDcuMjYyMjkzIDQ5NS4zNjM0MTNsNDM2LjkyNzE0Ny0yNDcuMjA3MjUzdjUyNC4zNzY3NDdMNTA3LjI2MjI5MyA2NzkuMDE0NFY0OTUuMzYzNDEzeiIvPjxwYXRoIGZpbGw9IiM2RDhBQ0EiIGQ9Ik01NDEuMjc5NTczIDguMzM1MzZDNTIzLjgzMDYxMy0xLjc0MDggNDk3LjM5MDkzMy0yLjgzMzA2NyA0ODIuMjc2NjkzIDUuODkxNDEzTDg1LjI5OTIgMjM1LjA4MzA5M2MtMTUuMTIxMDY3IDguNzMxMzA3LTEzLjIxNjQyNyAyMy45OTU3MzMgNC4yMzI1MzMgMzQuMDcxODk0bDM4OC41MDU2IDIyNC4zMDM3ODZjMTcuNDU1Nzg3IDEwLjA3NjE2IDQzLjg5NTQ2NyAxMS4xNjg0MjcgNTkuMDA5NzA3IDIuNDQzOTQ3bDM5Ni45Nzc0OTMtMjI5LjE5MTY4YzE1LjExNDI0LTguNzMxMzA3IDEzLjIxNjQyNy0yMy45OTU3MzMtNC4yMzkzNi0zNC4wNzE4OTNMNTQxLjI3OTU3MyA4LjMzNTM2ek0xMTcuODQ4NzQ3IDQzMC4zMDUyOGMwIDE3LjAwNTIyNyAxMC4zNDkyMjcgMzYuNzgyMDggMjMuMTAxNDQgNDQuMTQ4MDUzbDE3OS4wNDI5ODYgMTAzLjM2MjU2YzEyLjc1MjIxMyA3LjM2NTk3MyAyMy4xMDE0NC0wLjQ2NDIxMyAyMy4xMDE0NC0xNy40NjI2MTMgMC0xNy4wMDUyMjctMTAuMzQ5MjI3LTM2Ljc4MjA4LTIzLjEwMTQ0LTQ0LjE0ODA1M0wxNDAuOTUwMTg3IDQxMi44NDI2NjdjLTEyLjc1MjIxMy03LjM2NTk3My0yMy4xMDE0NCAwLjQ2NDIxMy0yMy4xMDE0NCAxNy40NjI2MTN6Ii8+PHBhdGggZmlsbD0iIzYwRTAwMCIgZD0iTTQyOS40NTg3NzMgNTc5LjQxMzMzM2MxNC43MjUxMiA4LjQ5OTIgMjYuNjc4NjEzIDI5LjIwNDQ4IDI2LjY3ODYxNCA0Ni4yMDI4OCAwIDE3LjAwNTIyNy0xMS45NTM0OTMgMjMuOTA2OTg3LTI2LjY3ODYxNCAxNS40MDc3ODctMTQuNzE4MjkzLTguNTA2MDI3LTI2LjY3ODYxMy0yOS4yMTEzMDctMjYuNjc4NjEzLTQ2LjIwOTcwNyAwLTE3LjAwNTIyNyAxMS45NjAzMi0yMy45MDY5ODcgMjYuNjc4NjEzLTE1LjQwMDk2eiIvPjxwYXRoIGZpbGw9IiM2RDhBQ0EiIGQ9Ik0xMTcuODQ4NzQ3IDU2Mi41NjUxMmMwIDE3LjAwNTIyNyAxMC4zNDkyMjcgMzYuNzgyMDggMjMuMTAxNDQgNDQuMTQ4MDUzbDE3OS4wNDI5ODYgMTAzLjM2OTM4N2MxMi43NTIyMTMgNy4zNTkxNDcgMjMuMTAxNDQtMC40NjQyMTMgMjMuMTAxNDQtMTcuNDY5NDQgMC0xNi45OTg0LTEwLjM0OTIyNy0zNi43ODIwOC0yMy4xMDE0NC00NC4xNDEyMjdMMTQwLjk1MDE4NyA1NDUuMTAyNTA3Yy0xMi43NTIyMTMtNy4zNjU5NzMtMjMuMTAxNDQgMC40NjQyMTMtMjMuMTAxNDQgMTcuNDYyNjEzeiIvPjxwYXRoIGZpbGw9IiM2MEUwMDAiIGQ9Ik00MjkuNDU4NzczIDcxMS42NzMxNzNjMTQuNzI1MTIgOC40OTkyIDI2LjY3ODYxMyAyOS4yMDQ0OCAyNi42Nzg2MTQgNDYuMjA5NzA3IDAgMTYuOTk4NC0xMS45NTM0OTMgMjMuOTAwMTYtMjYuNjc4NjE0IDE1LjQwMDk2LTE0LjcxODI5My04LjQ5OTItMjYuNjc4NjEzLTI5LjIwNDQ4LTI2LjY3ODYxMy00Ni4yMDk3MDcgMC0xNi45OTg0IDExLjk2MDMyLTIzLjkwMDE2IDI2LjY3ODYxMy0xNS40MDA5NnoiLz48cGF0aCBmaWxsPSIjNkQ4QUNBIiBkPSJNMTE3Ljg0ODc0NyA2OTQuODMxNzg3YzAgMTYuOTk4NCAxMC4zNDkyMjcgMzYuNzgyMDggMjMuMTAxNDQgNDQuMTQxMjI2bDE3OS4wNDI5ODYgMTAzLjM2OTM4N2MxMi43NTIyMTMgNy4zNTkxNDcgMjMuMTAxNDQtMC40NjQyMTMgMjMuMTAxNDQtMTcuNDY5NDQgMC0xNi45OTg0LTEwLjM0OTIyNy0zNi43ODIwOC0yMy4xMDE0NC00NC4xNDEyMjdMMTQwLjk1MDE4NyA2NzcuMzYyMzQ3Yy0xMi43NTIyMTMtNy4zNTkxNDctMjMuMTAxNDQgMC40NjQyMTMtMjMuMTAxNDQgMTcuNDY5NDR6Ii8+PHBhdGggZmlsbD0iIzYwRTAwMCIgZD0iTTQyOS40NTg3NzMgODQzLjkzMzAxM2MxNC43MjUxMiA4LjQ5OTIgMjYuNjc4NjEzIDI5LjIwNDQ4IDI2LjY3ODYxNCA0Ni4yMDk3MDcgMCAxNi45OTg0LTExLjk1MzQ5MyAyMy45MDAxNi0yNi42Nzg2MTQgMTUuNDAwOTYtMTQuNzE4MjkzLTguNDk5Mi0yNi42Nzg2MTMtMjkuMjA0NDgtMjYuNjc4NjEzLTQ2LjIwOTcwNyAwLTE2Ljk5ODQgMTEuOTYwMzItMjMuOTAwMTYgMjYuNjc4NjEzLTE1LjQwMDk2eiIvPjwvc3ZnPg==;" vertex="1" parent="1">
          <mxGeometry x="692" y="360" width="50" height="50" as="geometry" />
        </mxCell>
        <mxCell id="i5vnB2GfnYcnR_1JJq5a-27" value="&lt;font face=&quot;Comic Sans MS&quot;&gt;&lt;b&gt;Virtual DHCP Server&lt;/b&gt;&lt;/font&gt;" style="text;html=1;align=center;verticalAlign=middle;resizable=0;points=[];autosize=1;strokeColor=none;fillColor=none;fontSize=8;fontFamily=Architects Daughter;fontColor=default;" vertex="1" parent="1">
          <mxGeometry x="664" y="409" width="100" height="20" as="geometry" />
        </mxCell>
        <mxCell id="i5vnB2GfnYcnR_1JJq5a-29" value="&lt;font face=&quot;Comic Sans MS&quot; style=&quot;font-size: 8px;&quot;&gt;Physical Host:192.168.1.109&lt;/font&gt;" style="text;html=1;align=center;verticalAlign=middle;resizable=0;points=[];autosize=1;strokeColor=none;fillColor=none;fontSize=8;fontFamily=Architects Daughter;fontColor=default;fontStyle=1" vertex="1" parent="1">
          <mxGeometry x="203" y="432" width="140" height="20" as="geometry" />
        </mxCell>
        <mxCell id="i5vnB2GfnYcnR_1JJq5a-30" value="&lt;font face=&quot;Comic Sans MS&quot; style=&quot;font-size: 8px;&quot;&gt;192.168.126.254&lt;/font&gt;" style="text;html=1;align=center;verticalAlign=middle;resizable=0;points=[];autosize=1;strokeColor=none;fillColor=none;fontSize=8;fontFamily=Architects Daughter;fontColor=#B85450;fontStyle=1" vertex="1" parent="1">
          <mxGeometry x="672" y="419" width="90" height="20" as="geometry" />
        </mxCell>
        <mxCell id="i5vnB2GfnYcnR_1JJq5a-31" value="&lt;font face=&quot;Comic Sans MS&quot; style=&quot;font-size: 8px;&quot;&gt;NIC1&lt;/font&gt;" style="text;html=1;align=center;verticalAlign=middle;resizable=0;points=[];autosize=1;strokeColor=none;fillColor=none;fontSize=8;fontFamily=Architects Daughter;fontColor=default;fontStyle=1" vertex="1" parent="1">
          <mxGeometry x="293" y="351" width="40" height="20" as="geometry" />
        </mxCell>
      </root>
    </mxGraphModel>
  </diagram>
  <diagram id="xAYLF68oE0rKGZT94ax7" name="仅主机模式">
    <mxGraphModel dx="735" dy="429" grid="1" gridSize="10" guides="1" tooltips="1" connect="1" arrows="1" fold="1" page="1" pageScale="1" pageWidth="3300" pageHeight="4681" math="0" shadow="0">
      <root>
        <mxCell id="0" />
        <mxCell id="1" parent="0" />
        <mxCell id="cFXNptnNOSwSshi6yC1L-1" value="" style="image;aspect=fixed;perimeter=ellipsePerimeter;html=1;align=center;shadow=0;dashed=0;spacingTop=3;image=img/lib/active_directory/internet_cloud.svg;sketch=1;hachureGap=4;jiggle=2;curveFitting=1;fontFamily=Architects Daughter;fontSource=https%3A%2F%2Ffonts.googleapis.com%2Fcss%3Ffamily%3DArchitects%2BDaughter;fontSize=20;" vertex="1" parent="1">
          <mxGeometry x="311" y="251" width="50" height="31.5" as="geometry" />
        </mxCell>
        <mxCell id="cFXNptnNOSwSshi6yC1L-2" style="edgeStyle=orthogonalEdgeStyle;shape=connector;rounded=0;hachureGap=4;orthogonalLoop=1;jettySize=auto;html=1;exitX=0.5;exitY=1;exitDx=0;exitDy=0;labelBackgroundColor=default;strokeColor=default;fontFamily=Architects Daughter;fontSource=https%3A%2F%2Ffonts.googleapis.com%2Fcss%3Ffamily%3DArchitects%2BDaughter;fontSize=16;fontColor=default;endArrow=none;endFill=0;" edge="1" parent="1" source="cFXNptnNOSwSshi6yC1L-4" target="cFXNptnNOSwSshi6yC1L-5">
          <mxGeometry relative="1" as="geometry" />
        </mxCell>
        <mxCell id="cFXNptnNOSwSshi6yC1L-3" style="edgeStyle=orthogonalEdgeStyle;shape=connector;rounded=0;hachureGap=4;orthogonalLoop=1;jettySize=auto;html=1;exitX=0.5;exitY=0;exitDx=0;exitDy=0;entryX=0.46;entryY=1.017;entryDx=0;entryDy=0;entryPerimeter=0;labelBackgroundColor=default;strokeColor=default;fontFamily=Architects Daughter;fontSource=https%3A%2F%2Ffonts.googleapis.com%2Fcss%3Ffamily%3DArchitects%2BDaughter;fontSize=16;fontColor=default;endArrow=none;endFill=0;" edge="1" parent="1" source="cFXNptnNOSwSshi6yC1L-4" target="cFXNptnNOSwSshi6yC1L-18">
          <mxGeometry relative="1" as="geometry" />
        </mxCell>
        <mxCell id="cFXNptnNOSwSshi6yC1L-4" value="" style="shape=image;verticalLabelPosition=bottom;labelBackgroundColor=default;verticalAlign=top;aspect=fixed;imageAspect=0;image=data:image/svg+xml,PHN2ZyB4bWxuczp4bGluaz0iaHR0cDovL3d3dy53My5vcmcvMTk5OS94bGluayIgeG1sbnM9Imh0dHA6Ly93d3cudzMub3JnLzIwMDAvc3ZnIiBoZWlnaHQ9IjIwMCIgd2lkdGg9IjIwMCIgdmVyc2lvbj0iMS4xIiB2aWV3Qm94PSIwIDAgMTAyNCAxMDI0IiBjbGFzcz0iaWNvbiI+PHBhdGggZmlsbD0iIzEzMjI3YSIgZD0iTTgzMiAxOTJIMTcwLjY2NjY2N1YxMzguNjY2NjY3QzE3MC42NjY2NjcgMTIxLjYgMTU1LjczMzMzMyAxMDYuNjY2NjY3IDEzOC42NjY2NjcgMTA2LjY2NjY2N1MxMDYuNjY2NjY3IDEyMS42IDEwNi42NjY2NjcgMTM4LjY2NjY2N3Y3NDYuNjY2NjY2YzAgMTcuMDY2NjY3IDE0LjkzMzMzMyAzMiAzMiAzMlMxNzAuNjY2NjY3IDkwMi40IDE3MC42NjY2NjcgODg1LjMzMzMzM1Y3NjhoMTA2LjY2NjY2NnY0Mi42NjY2NjdjMCAyMy40NjY2NjcgMTkuMiA0Mi42NjY2NjcgNDIuNjY2NjY3IDQyLjY2NjY2Nmg0MjYuNjY2NjY3YzIzLjQ2NjY2NyAwIDQyLjY2NjY2Ny0xOS4yIDQyLjY2NjY2Ni00Mi42NjY2NjZ2LTQyLjY2NjY2N2g0Mi42NjY2NjdjNDYuOTMzMzMzIDAgODUuMzMzMzMzLTM4LjQgODUuMzMzMzMzLTg1LjMzMzMzM1YyNzcuMzMzMzMzYzAtNDYuOTMzMzMzLTM4LjQtODUuMzMzMzMzLTg1LjMzMzMzMy04NS4zMzMzMzN6TTQwNS4zMzMzMzMgNzQ2LjY2NjY2N2MwIDE3LjA2NjY2Ny0xNC45MzMzMzMgMzItMzIgMzJTMzQxLjMzMzMzMyA3NjMuNzMzMzMzIDM0MS4zMzMzMzMgNzQ2LjY2NjY2N3YtNDIuNjY2NjY3YzAtMTcuMDY2NjY3IDE0LjkzMzMzMy0zMiAzMi0zMnMzMiAxNC45MzMzMzMgMzIgMzJ2NDIuNjY2NjY3eiBtMTA2LjY2NjY2NyAwYzAgMTcuMDY2NjY3LTE0LjkzMzMzMyAzMi0zMiAzMlM0NDggNzYzLjczMzMzMyA0NDggNzQ2LjY2NjY2N3YtNDIuNjY2NjY3YzAtMTcuMDY2NjY3IDE0LjkzMzMzMy0zMiAzMi0zMnMzMiAxNC45MzMzMzMgMzIgMzJ2NDIuNjY2NjY3eiBtMC0xNzAuNjY2NjY3Yy0xNy4wNjY2NjcgMC0zMi0xNC45MzMzMzMtMzItMzIgMC0xMi44IDguNTMzMzMzLTIzLjQ2NjY2NyAxOS4yLTI5Ljg2NjY2NyAyLjEzMzMzMyAwIDQuMjY2NjY3LTIuMTMzMzMzIDQuMjY2NjY3LTIuMTMzMzMzaDEyLjhjMi4xMzMzMzMgMCA0LjI2NjY2NyAwIDQuMjY2NjY2IDIuMTMzMzMzIDEwLjY2NjY2NyA0LjI2NjY2NyAxOS4yIDE3LjA2NjY2NyAxOS4yIDI5Ljg2NjY2NyA0LjI2NjY2NyAxNy4wNjY2NjctMTAuNjY2NjY3IDMyLTI3LjczMzMzMyAzMnogbTEwNi42NjY2NjcgMTcwLjY2NjY2N2MwIDE3LjA2NjY2Ny0xNC45MzMzMzMgMzItMzIgMzJTNTU0LjY2NjY2NyA3NjMuNzMzMzMzIDU1NC42NjY2NjcgNzQ2LjY2NjY2N3YtNDIuNjY2NjY3YzAtMTcuMDY2NjY3IDE0LjkzMzMzMy0zMiAzMi0zMnMzMiAxNC45MzMzMzMgMzIgMzJ2NDIuNjY2NjY3eiBtLTMyLTI0NS4zMzMzMzRjLTguNTMzMzMzIDAtMTcuMDY2NjY3LTQuMjY2NjY3LTIzLjQ2NjY2Ny04LjUzMzMzMy0xMi44LTEyLjgtMzItMjEuMzMzMzMzLTUzLjMzMzMzMy0yMS4zMzMzMzNzLTM4LjQgOC41MzMzMzMtNTMuMzMzMzM0IDIzLjQ2NjY2NmMtNi40IDYuNC0xMi44IDguNTMzMzMzLTIzLjQ2NjY2NiA4LjUzMzMzNC0xNy4wNjY2NjcgMC0zMi0xNC45MzMzMzMtMzItMzIgMC04LjUzMzMzMyA0LjI2NjY2Ny0xNy4wNjY2NjcgOC41MzMzMzMtMjMuNDY2NjY3IDI1LjYtMjUuNiA1OS43MzMzMzMtNDAuNTMzMzMzIDk4LjEzMzMzMy00MC41MzMzMzNzNzIuNTMzMzMzIDE0LjkzMzMzMyA5OC4xMzMzMzQgNDAuNTMzMzMzYzYuNCA2LjQgOC41MzMzMzMgMTIuOCA4LjUzMzMzMyAyMS4zMzMzMzMgNC4yNjY2NjcgMTcuMDY2NjY3LTEwLjY2NjY2NyAzMi0yNy43MzMzMzMgMzJ6IG01My4zMzMzMzMtODUuMzMzMzMzQzYwOCAzODQgNTYxLjA2NjY2NyAzNjIuNjY2NjY3IDUxMiAzNjIuNjY2NjY3cy05NiAyMS4zMzMzMzMtMTI4IDUzLjMzMzMzM2MtNi40IDYuNC0xNC45MzMzMzMgMTAuNjY2NjY3LTIzLjQ2NjY2NyAxMC42NjY2NjctMTcuMDY2NjY3IDAtMzItMTQuOTMzMzMzLTMyLTMyIDAtOC41MzMzMzMgNC4yNjY2NjctMTcuMDY2NjY3IDEwLjY2NjY2Ny0yMy40NjY2NjdDMzg0IDMyNi40IDQ0My43MzMzMzMgMjk4LjY2NjY2NyA1MTIgMjk4LjY2NjY2N2M2Ni4xMzMzMzMgMCAxMjUuODY2NjY3IDI1LjYgMTY4LjUzMzMzMyA2OC4yNjY2NjZsMi4xMzMzMzQgMi4xMzMzMzRjNC4yNjY2NjcgNi40IDguNTMzMzMzIDEyLjggOC41MzMzMzMgMjEuMzMzMzMzIDAgMTcuMDY2NjY3LTE0LjkzMzMzMyAzMi0zMiAzMi02LjQgMi4xMzMzMzMtMTIuOC0yLjEzMzMzMy0xOS4yLTYuNHpNNzI1LjMzMzMzMyA3NDYuNjY2NjY3YzAgMTcuMDY2NjY3LTE0LjkzMzMzMyAzMi0zMiAzMlM2NjEuMzMzMzMzIDc2My43MzMzMzMgNjYxLjMzMzMzMyA3NDYuNjY2NjY3di00Mi42NjY2NjdjMC0xNy4wNjY2NjcgMTQuOTMzMzMzLTMyIDMyLTMyczMyIDE0LjkzMzMzMyAzMiAzMnY0Mi42NjY2Njd6Ii8+PC9zdmc+;" vertex="1" parent="1">
          <mxGeometry x="325" y="352" width="20" height="20" as="geometry" />
        </mxCell>
        <mxCell id="cFXNptnNOSwSshi6yC1L-5" value="" style="sketch=0;pointerEvents=1;shadow=0;dashed=0;html=1;strokeColor=none;labelPosition=center;verticalLabelPosition=bottom;verticalAlign=top;outlineConnect=0;align=center;shape=mxgraph.office.servers.physical_host;fillColor=#2072B8;hachureGap=4;jiggle=2;curveFitting=1;fontFamily=Architects Daughter;fontSource=https%3A%2F%2Ffonts.googleapis.com%2Fcss%3Ffamily%3DArchitects%2BDaughter;fontSize=20;" vertex="1" parent="1">
          <mxGeometry x="321.5" y="452" width="27" height="52" as="geometry" />
        </mxCell>
        <mxCell id="cFXNptnNOSwSshi6yC1L-6" style="shape=connector;rounded=0;hachureGap=4;orthogonalLoop=1;jettySize=auto;html=1;exitX=0.5;exitY=0;exitDx=0;exitDy=0;entryX=0.152;entryY=0.99;entryDx=0;entryDy=0;labelBackgroundColor=default;strokeColor=default;fontFamily=Architects Daughter;fontSource=https%3A%2F%2Ffonts.googleapis.com%2Fcss%3Ffamily%3DArchitects%2BDaughter;fontSize=16;fontColor=default;endArrow=none;endFill=0;entryPerimeter=0;" edge="1" parent="1" source="cFXNptnNOSwSshi6yC1L-7" target="cFXNptnNOSwSshi6yC1L-9">
          <mxGeometry relative="1" as="geometry" />
        </mxCell>
        <mxCell id="cFXNptnNOSwSshi6yC1L-7" value="" style="shape=image;verticalLabelPosition=bottom;labelBackgroundColor=default;verticalAlign=top;aspect=fixed;imageAspect=0;image=data:image/svg+xml,PHN2ZyB4bWxuczp4bGluaz0iaHR0cDovL3d3dy53My5vcmcvMTk5OS94bGluayIgeG1sbnM9Imh0dHA6Ly93d3cudzMub3JnLzIwMDAvc3ZnIiBoZWlnaHQ9IjIwMCIgd2lkdGg9IjIwMCIgdmVyc2lvbj0iMS4xIiB2aWV3Qm94PSIwIDAgMTAyNCAxMDI0IiBjbGFzcz0iaWNvbiI+PHBhdGggZmlsbD0iIzQ3NjJBRiIgZD0iTTU0MS4yNzk1NzMgNTI5Ljk3NDYxM2MtMTcuNDQ4OTYtMTAuMDc2MTYtNDMuODg4NjQtMTEuMTc1MjUzLTU5LjAwMjg4LTIuNDUwNzczTDg1LjI5OTIgNzU2LjcyMjM0N2MtMTUuMTIxMDY3IDguNzI0NDgtMTMuMjE2NDI3IDIzLjk4ODkwNyA0LjIzMjUzMyAzNC4wNjUwNjZsMzg4LjUwNTYgMjI0LjMwMzc4N2MxNy40NTU3ODcgMTAuMDc2MTYgNDMuODk1NDY3IDExLjE3NTI1MyA1OS4wMDk3MDcgMi40NTA3NzNsMzk2Ljk3NzQ5My0yMjkuMTk4NTA2YzE1LjExNDI0LTguNzI0NDggMTMuMjE2NDI3LTIzLjk4ODkwNy00LjIzOTM2LTM0LjA2NTA2N2wtMzg4LjUwNTYtMjI0LjMwMzc4N3oiLz48cGF0aCBmaWxsPSIjNDc2MkFGIiBkPSJNNzUuMDkzMzMzIDI0OS44ODMzMDd2NTIxLjYzMjQyNmw0MzQuNTY1MTIgMjUxLjg5MDM0N1Y1MDEuNzczNjUzTDc1LjA5MzMzMyAyNDkuODgzMzA3eiIvPjxwYXRoIGZpbGw9IiM0NzYyQUYiIGQ9Ik01MDcuMjYyMjkzIDQ5NS4zNjM0MTNsNDM2LjkyNzE0Ny0yNDcuMjA3MjUzdjUyNC4zNzY3NDdMNTA3LjI2MjI5MyA2NzkuMDE0NFY0OTUuMzYzNDEzeiIvPjxwYXRoIGZpbGw9IiM2RDhBQ0EiIGQ9Ik01NDEuMjc5NTczIDguMzM1MzZDNTIzLjgzMDYxMy0xLjc0MDggNDk3LjM5MDkzMy0yLjgzMzA2NyA0ODIuMjc2NjkzIDUuODkxNDEzTDg1LjI5OTIgMjM1LjA4MzA5M2MtMTUuMTIxMDY3IDguNzMxMzA3LTEzLjIxNjQyNyAyMy45OTU3MzMgNC4yMzI1MzMgMzQuMDcxODk0bDM4OC41MDU2IDIyNC4zMDM3ODZjMTcuNDU1Nzg3IDEwLjA3NjE2IDQzLjg5NTQ2NyAxMS4xNjg0MjcgNTkuMDA5NzA3IDIuNDQzOTQ3bDM5Ni45Nzc0OTMtMjI5LjE5MTY4YzE1LjExNDI0LTguNzMxMzA3IDEzLjIxNjQyNy0yMy45OTU3MzMtNC4yMzkzNi0zNC4wNzE4OTNMNTQxLjI3OTU3MyA4LjMzNTM2ek0xMTcuODQ4NzQ3IDQzMC4zMDUyOGMwIDE3LjAwNTIyNyAxMC4zNDkyMjcgMzYuNzgyMDggMjMuMTAxNDQgNDQuMTQ4MDUzbDE3OS4wNDI5ODYgMTAzLjM2MjU2YzEyLjc1MjIxMyA3LjM2NTk3MyAyMy4xMDE0NC0wLjQ2NDIxMyAyMy4xMDE0NC0xNy40NjI2MTMgMC0xNy4wMDUyMjctMTAuMzQ5MjI3LTM2Ljc4MjA4LTIzLjEwMTQ0LTQ0LjE0ODA1M0wxNDAuOTUwMTg3IDQxMi44NDI2NjdjLTEyLjc1MjIxMy03LjM2NTk3My0yMy4xMDE0NCAwLjQ2NDIxMy0yMy4xMDE0NCAxNy40NjI2MTN6Ii8+PHBhdGggZmlsbD0iIzYwRTAwMCIgZD0iTTQyOS40NTg3NzMgNTc5LjQxMzMzM2MxNC43MjUxMiA4LjQ5OTIgMjYuNjc4NjEzIDI5LjIwNDQ4IDI2LjY3ODYxNCA0Ni4yMDI4OCAwIDE3LjAwNTIyNy0xMS45NTM0OTMgMjMuOTA2OTg3LTI2LjY3ODYxNCAxNS40MDc3ODctMTQuNzE4MjkzLTguNTA2MDI3LTI2LjY3ODYxMy0yOS4yMTEzMDctMjYuNjc4NjEzLTQ2LjIwOTcwNyAwLTE3LjAwNTIyNyAxMS45NjAzMi0yMy45MDY5ODcgMjYuNjc4NjEzLTE1LjQwMDk2eiIvPjxwYXRoIGZpbGw9IiM2RDhBQ0EiIGQ9Ik0xMTcuODQ4NzQ3IDU2Mi41NjUxMmMwIDE3LjAwNTIyNyAxMC4zNDkyMjcgMzYuNzgyMDggMjMuMTAxNDQgNDQuMTQ4MDUzbDE3OS4wNDI5ODYgMTAzLjM2OTM4N2MxMi43NTIyMTMgNy4zNTkxNDcgMjMuMTAxNDQtMC40NjQyMTMgMjMuMTAxNDQtMTcuNDY5NDQgMC0xNi45OTg0LTEwLjM0OTIyNy0zNi43ODIwOC0yMy4xMDE0NC00NC4xNDEyMjdMMTQwLjk1MDE4NyA1NDUuMTAyNTA3Yy0xMi43NTIyMTMtNy4zNjU5NzMtMjMuMTAxNDQgMC40NjQyMTMtMjMuMTAxNDQgMTcuNDYyNjEzeiIvPjxwYXRoIGZpbGw9IiM2MEUwMDAiIGQ9Ik00MjkuNDU4NzczIDcxMS42NzMxNzNjMTQuNzI1MTIgOC40OTkyIDI2LjY3ODYxMyAyOS4yMDQ0OCAyNi42Nzg2MTQgNDYuMjA5NzA3IDAgMTYuOTk4NC0xMS45NTM0OTMgMjMuOTAwMTYtMjYuNjc4NjE0IDE1LjQwMDk2LTE0LjcxODI5My04LjQ5OTItMjYuNjc4NjEzLTI5LjIwNDQ4LTI2LjY3ODYxMy00Ni4yMDk3MDcgMC0xNi45OTg0IDExLjk2MDMyLTIzLjkwMDE2IDI2LjY3ODYxMy0xNS40MDA5NnoiLz48cGF0aCBmaWxsPSIjNkQ4QUNBIiBkPSJNMTE3Ljg0ODc0NyA2OTQuODMxNzg3YzAgMTYuOTk4NCAxMC4zNDkyMjcgMzYuNzgyMDggMjMuMTAxNDQgNDQuMTQxMjI2bDE3OS4wNDI5ODYgMTAzLjM2OTM4N2MxMi43NTIyMTMgNy4zNTkxNDcgMjMuMTAxNDQtMC40NjQyMTMgMjMuMTAxNDQtMTcuNDY5NDQgMC0xNi45OTg0LTEwLjM0OTIyNy0zNi43ODIwOC0yMy4xMDE0NC00NC4xNDEyMjdMMTQwLjk1MDE4NyA2NzcuMzYyMzQ3Yy0xMi43NTIyMTMtNy4zNTkxNDctMjMuMTAxNDQgMC40NjQyMTMtMjMuMTAxNDQgMTcuNDY5NDR6Ii8+PHBhdGggZmlsbD0iIzYwRTAwMCIgZD0iTTQyOS40NTg3NzMgODQzLjkzMzAxM2MxNC43MjUxMiA4LjQ5OTIgMjYuNjc4NjEzIDI5LjIwNDQ4IDI2LjY3ODYxNCA0Ni4yMDk3MDcgMCAxNi45OTg0LTExLjk1MzQ5MyAyMy45MDAxNi0yNi42Nzg2MTQgMTUuNDAwOTYtMTQuNzE4MjkzLTguNDk5Mi0yNi42Nzg2MTMtMjkuMjA0NDgtMjYuNjc4NjEzLTQ2LjIwOTcwNyAwLTE2Ljk5ODQgMTEuOTYwMzItMjMuOTAwMTYgMjYuNjc4NjEzLTE1LjQwMDk2eiIvPjwvc3ZnPg==;" vertex="1" parent="1">
          <mxGeometry x="522" y="454" width="50" height="50" as="geometry" />
        </mxCell>
        <mxCell id="cFXNptnNOSwSshi6yC1L-8" style="edgeStyle=none;shape=connector;rounded=0;hachureGap=4;orthogonalLoop=1;jettySize=auto;html=1;exitX=1;exitY=0.5;exitDx=0;exitDy=0;labelBackgroundColor=default;strokeColor=default;fontFamily=Architects Daughter;fontSource=https%3A%2F%2Ffonts.googleapis.com%2Fcss%3Ffamily%3DArchitects%2BDaughter;fontSize=16;fontColor=default;endArrow=none;endFill=0;" edge="1" parent="1" source="cFXNptnNOSwSshi6yC1L-9" target="cFXNptnNOSwSshi6yC1L-27">
          <mxGeometry relative="1" as="geometry" />
        </mxCell>
        <mxCell id="cFXNptnNOSwSshi6yC1L-9" value="" style="shape=image;verticalLabelPosition=bottom;labelBackgroundColor=default;verticalAlign=top;aspect=fixed;imageAspect=0;image=data:image/svg+xml,PHN2ZyB4bWxuczp4bGluaz0iaHR0cDovL3d3dy53My5vcmcvMTk5OS94bGluayIgeG1sbnM9Imh0dHA6Ly93d3cudzMub3JnLzIwMDAvc3ZnIiBoZWlnaHQ9IjIwMCIgd2lkdGg9IjQyNC4wMjM0Mzc1IiB2ZXJzaW9uPSIxLjEiIHZpZXdCb3g9IjAgMCAyMTcxIDEwMjQiIGNsYXNzPSJpY29uIj48cGF0aCBmaWxsPSIjMzMzMzMzIiBkPSJNMjA2Ny4zMzQyNCAwLjAxNTI1N2gtNTUwLjQyODQ3NWEyOS45MjczNDggMjkuOTI3MzQ4IDAgMCAwIDAgNTguNjgxMDc0aDU1MC40Mjg0NzVhNDMuNDIzOTk1IDQzLjQyMzk5NSAwIDAgMSA0My40MjM5OTUgNDIuODM3MTg0djY2OS41NTEwNTZhNDMuNDIzOTk1IDQzLjQyMzk5NSAwIDAgMS00My40MjM5OTUgNDMuNDIzOTk0SDk2OS40MTEzNDRhMjkuOTI3MzQ4IDI5LjkyNzM0OCAwIDAgMCAwIDU4LjY4MTA3NWg3NTIuODc4MTgxdjEwNC40NTIzMTFhNDYuOTQ0ODU5IDQ2Ljk0NDg1OSAwIDAgMCA0Ni4zNTgwNDggNDYuMzU4MDQ5aDExNy4zNjIxNDhhNDYuMzU4MDQ5IDQ2LjM1ODA0OSAwIDAgMCA0Ni4zNTgwNDktNDYuMzU4MDQ5di0xMDQuNDUyMzExaDEzNS41NTMyODFBMTAyLjEwNTA2OSAxMDIuMTA1MDY5IDAgMCAwIDIxNzEuMTk5NzQxIDc3MS4wODQ1NzFWMTAxLjUzMzUxNUExMDIuMTA1MDY5IDEwMi4xMDUwNjkgMCAwIDAgMjA2Ny4zMzQyNCAwLjAxNTI1N3ogbS0xOTQuMjM0MzU1IDk2NS4zMDM2NjloLTkyLjEyOTI4NnYtOTIuMTI5Mjg2aDkyLjEyOTI4NnpNMzEwLjQyMjg4MiAyNjguNzc0NTc2YTQ2LjM1ODA0OSA0Ni4zNTgwNDkgMCAwIDAtNDYuMzU4MDQ5IDQ2LjM1ODA0OXYyMDUuOTcwNTdhNDYuMzU4MDQ5IDQ2LjM1ODA0OSAwIDAgMCA0Ni4zNTgwNDkgNDYuMzU4MDQ5SDUxNi4zOTM0NTJhNDYuMzU4MDQ5IDQ2LjM1ODA0OSAwIDAgMCA0Ni4zNTgwNDktNDYuMzU4MDQ5VjMxNS4xMzI2MjVhNDYuMzU4MDQ5IDQ2LjM1ODA0OSAwIDAgMC00Ni4zNTgwNDktNDYuMzU4MDQ5eiBtMTkzLjY0NzU0NCAyNDAuMDA1NTkzSDMyMi43NDU5MDhWMzI3LjQ1NTY1MWgxODEuMzI0NTE4ek0xMDAzLjQ0NjM2NyA1MjEuMTAzMTk1VjMxNS4xMzI2MjVhNDYuMzU4MDQ5IDQ2LjM1ODA0OSAwIDAgMC00Ni4zNTgwNDktNDYuMzU4MDQ5SDc1MS4xMTc3NDhhNDYuMzU4MDQ5IDQ2LjM1ODA0OSAwIDAgMC00Ni4zNTgwNDggNDYuMzU4MDQ5djIwNS45NzA1N2E0Ni4zNTgwNDkgNDYuMzU4MDQ5IDAgMCAwIDQ2LjM1ODA0OCA0Ni4zNTgwNDloMjA1Ljk3MDU3YTQ2LjM1ODA0OSA0Ni4zNTgwNDkgMCAwIDAgNDYuMzU4MDQ5LTQ2LjM1ODA0OXogbS01OC42ODEwNzQtMTIuMzIzMDI2SDc2Mi44NTM5NjNWMzI3LjQ1NTY1MWgxODEuOTExMzN6Ii8+PHBhdGggZmlsbD0iIzMzMzMzMyIgZD0iTTExNDUuNDU0NTY2IDMxNS4xMzI2MjV2MjA1Ljk3MDU3YTQ2LjM1ODA0OSA0Ni4zNTgwNDkgMCAwIDAgNDYuMzU4MDQ5IDQ2LjM1ODA0OWgyMDUuOTcwNTdhNDYuMzU4MDQ5IDQ2LjM1ODA0OSAwIDAgMCA0Ni4zNTgwNDgtNDYuMzU4MDQ5VjMxNS4xMzI2MjVhNDYuMzU4MDQ5IDQ2LjM1ODA0OSAwIDAgMC00Ni4zNTgwNDgtNDYuMzU4MDQ5aC0yMDUuOTcwNTdhNDYuMzU4MDQ5IDQ2LjM1ODA0OSAwIDAgMC00Ni4zNTgwNDkgNDYuMzU4MDQ5eiBtNTguNjgxMDc0IDEyLjMyMzAyNmgxODEuMzI0NTE5djE4MS4zMjQ1MThoLTE4MS4zMjQ1MTl6TTE4MzguNDc4MDUxIDU2Ny40NjEyNDRhNDYuMzU4MDQ5IDQ2LjM1ODA0OSAwIDAgMCA0Ni45NDQ4Ni00Ni4zNTgwNDlWMzE1LjEzMjYyNWE0Ni4zNTgwNDkgNDYuMzU4MDQ5IDAgMCAwLTQ2Ljk0NDg2LTQ2LjM1ODA0OWgtMjA1Ljk3MDU3YTQ2LjM1ODA0OSA0Ni4zNTgwNDkgMCAwIDAtNDYuMzU4MDQ4IDQ2LjM1ODA0OXYyMDUuOTcwNTdhNDYuMzU4MDQ5IDQ2LjM1ODA0OSAwIDAgMCA0Ni4zNTgwNDggNDYuMzU4MDQ5ek0xNjQzLjA3MDA3NSAzMjcuNDU1NjUxaDE4MS45MTEzMjl2MTgxLjMyNDUxOEgxNjQzLjA3MDA3NXpNMTM2NS41MDg1OTQgNTguNjk2MzMxYTI4Ljc1MzcyNiAyOC43NTM3MjYgMCAwIDAgMjguNzUzNzI2LTI5LjM0MDUzNyAyOS4zNDA1MzcgMjkuMzQwNTM3IDAgMSAwLTI4Ljc1MzcyNiAyOS4zNDA1Mzd6Ii8+PHBhdGggZmlsbD0iIzMzMzMzMyIgZD0iTTg0My44MzM4NDUgODQzLjI2MjI5Mm0tMjkuMzQwNTM3IDBhMjkuMzQwNTM3IDI5LjM0MDUzNyAwIDEgMCA1OC42ODEwNzUgMCAyOS4zNDA1MzcgMjkuMzQwNTM3IDAgMSAwLTU4LjY4MTA3NSAwWiIvPjxwYXRoIGZpbGw9IiMzMzMzMzMiIGQ9Ik02ODQuMjIxMzI0IDgxMy45MjE3NTVIMTAxLjUxODI1OGE0My40MjM5OTUgNDMuNDIzOTk1IDAgMCAxLTQyLjgzNzE4NC00Mi44MzcxODRWMTAxLjUzMzUxNUE0Mi44MzcxODQgNDIuODM3MTg0IDAgMCAxIDEwMS41MTgyNTggNTguNjk2MzMxaDExMTQuOTQwNDA4YTI5LjkyNzM0OCAyOS45MjczNDggMCAwIDAgMC01OC42ODEwNzRoLTExMTQuOTQwNDA4QTEwMi4xMDUwNjkgMTAyLjEwNTA2OSAwIDAgMCAwIDEwMS41MzM1MTV2NjY5LjU1MTA1NmExMDIuMTA1MDY5IDEwMi4xMDUwNjkgMCAwIDAgMTAxLjUxODI1OCAxMDIuMTA1MDY5aDE2My43MjAxOTd2MTA0LjQ1MjMxMWE0Ni45NDQ4NTkgNDYuOTQ0ODU5IDAgMCAwIDQ2LjM1ODA0OCA0Ni4zNTgwNDloMTE3LjM2MjE0OWE0Ni4zNTgwNDkgNDYuMzU4MDQ5IDAgMCAwIDQ2LjM1ODA0OC00Ni4zNTgwNDl2LTEwNC40NTIzMTFoMjA5LjQ5MTQzNWEyOS45MjczNDggMjkuOTI3MzQ4IDAgMCAwIDAtNTguNjgxMDc1eiBtLTI2OC4xNzI1MDkgMTUxLjM5NzE3MUgzMjMuOTE5NTI5di05Mi4xMjkyODZoOTIuMTI5Mjg2eiIvPjwvc3ZnPg==;" vertex="1" parent="1">
          <mxGeometry x="530" y="360" width="110" height="51.9" as="geometry" />
        </mxCell>
        <mxCell id="cFXNptnNOSwSshi6yC1L-10" style="shape=connector;rounded=0;hachureGap=4;orthogonalLoop=1;jettySize=auto;html=1;exitX=0.5;exitY=0;exitDx=0;exitDy=0;labelBackgroundColor=default;strokeColor=default;fontFamily=Architects Daughter;fontSource=https%3A%2F%2Ffonts.googleapis.com%2Fcss%3Ffamily%3DArchitects%2BDaughter;fontSize=16;fontColor=default;endArrow=none;endFill=0;" edge="1" parent="1" source="cFXNptnNOSwSshi6yC1L-11">
          <mxGeometry relative="1" as="geometry">
            <mxPoint x="630" y="410" as="targetPoint" />
          </mxGeometry>
        </mxCell>
        <mxCell id="cFXNptnNOSwSshi6yC1L-11" value="" style="shape=image;verticalLabelPosition=bottom;labelBackgroundColor=default;verticalAlign=top;aspect=fixed;imageAspect=0;image=data:image/svg+xml,PHN2ZyB4bWxuczp4bGluaz0iaHR0cDovL3d3dy53My5vcmcvMTk5OS94bGluayIgeG1sbnM9Imh0dHA6Ly93d3cudzMub3JnLzIwMDAvc3ZnIiBoZWlnaHQ9IjIwMCIgd2lkdGg9IjIwMCIgdmVyc2lvbj0iMS4xIiB2aWV3Qm94PSIwIDAgMTAyNCAxMDI0IiBjbGFzcz0iaWNvbiI+PHBhdGggZmlsbD0iIzQ3NjJBRiIgZD0iTTU0MS4yNzk1NzMgNTI5Ljk3NDYxM2MtMTcuNDQ4OTYtMTAuMDc2MTYtNDMuODg4NjQtMTEuMTc1MjUzLTU5LjAwMjg4LTIuNDUwNzczTDg1LjI5OTIgNzU2LjcyMjM0N2MtMTUuMTIxMDY3IDguNzI0NDgtMTMuMjE2NDI3IDIzLjk4ODkwNyA0LjIzMjUzMyAzNC4wNjUwNjZsMzg4LjUwNTYgMjI0LjMwMzc4N2MxNy40NTU3ODcgMTAuMDc2MTYgNDMuODk1NDY3IDExLjE3NTI1MyA1OS4wMDk3MDcgMi40NTA3NzNsMzk2Ljk3NzQ5My0yMjkuMTk4NTA2YzE1LjExNDI0LTguNzI0NDggMTMuMjE2NDI3LTIzLjk4ODkwNy00LjIzOTM2LTM0LjA2NTA2N2wtMzg4LjUwNTYtMjI0LjMwMzc4N3oiLz48cGF0aCBmaWxsPSIjNDc2MkFGIiBkPSJNNzUuMDkzMzMzIDI0OS44ODMzMDd2NTIxLjYzMjQyNmw0MzQuNTY1MTIgMjUxLjg5MDM0N1Y1MDEuNzczNjUzTDc1LjA5MzMzMyAyNDkuODgzMzA3eiIvPjxwYXRoIGZpbGw9IiM0NzYyQUYiIGQ9Ik01MDcuMjYyMjkzIDQ5NS4zNjM0MTNsNDM2LjkyNzE0Ny0yNDcuMjA3MjUzdjUyNC4zNzY3NDdMNTA3LjI2MjI5MyA2NzkuMDE0NFY0OTUuMzYzNDEzeiIvPjxwYXRoIGZpbGw9IiM2RDhBQ0EiIGQ9Ik01NDEuMjc5NTczIDguMzM1MzZDNTIzLjgzMDYxMy0xLjc0MDggNDk3LjM5MDkzMy0yLjgzMzA2NyA0ODIuMjc2NjkzIDUuODkxNDEzTDg1LjI5OTIgMjM1LjA4MzA5M2MtMTUuMTIxMDY3IDguNzMxMzA3LTEzLjIxNjQyNyAyMy45OTU3MzMgNC4yMzI1MzMgMzQuMDcxODk0bDM4OC41MDU2IDIyNC4zMDM3ODZjMTcuNDU1Nzg3IDEwLjA3NjE2IDQzLjg5NTQ2NyAxMS4xNjg0MjcgNTkuMDA5NzA3IDIuNDQzOTQ3bDM5Ni45Nzc0OTMtMjI5LjE5MTY4YzE1LjExNDI0LTguNzMxMzA3IDEzLjIxNjQyNy0yMy45OTU3MzMtNC4yMzkzNi0zNC4wNzE4OTNMNTQxLjI3OTU3MyA4LjMzNTM2ek0xMTcuODQ4NzQ3IDQzMC4zMDUyOGMwIDE3LjAwNTIyNyAxMC4zNDkyMjcgMzYuNzgyMDggMjMuMTAxNDQgNDQuMTQ4MDUzbDE3OS4wNDI5ODYgMTAzLjM2MjU2YzEyLjc1MjIxMyA3LjM2NTk3MyAyMy4xMDE0NC0wLjQ2NDIxMyAyMy4xMDE0NC0xNy40NjI2MTMgMC0xNy4wMDUyMjctMTAuMzQ5MjI3LTM2Ljc4MjA4LTIzLjEwMTQ0LTQ0LjE0ODA1M0wxNDAuOTUwMTg3IDQxMi44NDI2NjdjLTEyLjc1MjIxMy03LjM2NTk3My0yMy4xMDE0NCAwLjQ2NDIxMy0yMy4xMDE0NCAxNy40NjI2MTN6Ii8+PHBhdGggZmlsbD0iIzYwRTAwMCIgZD0iTTQyOS40NTg3NzMgNTc5LjQxMzMzM2MxNC43MjUxMiA4LjQ5OTIgMjYuNjc4NjEzIDI5LjIwNDQ4IDI2LjY3ODYxNCA0Ni4yMDI4OCAwIDE3LjAwNTIyNy0xMS45NTM0OTMgMjMuOTA2OTg3LTI2LjY3ODYxNCAxNS40MDc3ODctMTQuNzE4MjkzLTguNTA2MDI3LTI2LjY3ODYxMy0yOS4yMTEzMDctMjYuNjc4NjEzLTQ2LjIwOTcwNyAwLTE3LjAwNTIyNyAxMS45NjAzMi0yMy45MDY5ODcgMjYuNjc4NjEzLTE1LjQwMDk2eiIvPjxwYXRoIGZpbGw9IiM2RDhBQ0EiIGQ9Ik0xMTcuODQ4NzQ3IDU2Mi41NjUxMmMwIDE3LjAwNTIyNyAxMC4zNDkyMjcgMzYuNzgyMDggMjMuMTAxNDQgNDQuMTQ4MDUzbDE3OS4wNDI5ODYgMTAzLjM2OTM4N2MxMi43NTIyMTMgNy4zNTkxNDcgMjMuMTAxNDQtMC40NjQyMTMgMjMuMTAxNDQtMTcuNDY5NDQgMC0xNi45OTg0LTEwLjM0OTIyNy0zNi43ODIwOC0yMy4xMDE0NC00NC4xNDEyMjdMMTQwLjk1MDE4NyA1NDUuMTAyNTA3Yy0xMi43NTIyMTMtNy4zNjU5NzMtMjMuMTAxNDQgMC40NjQyMTMtMjMuMTAxNDQgMTcuNDYyNjEzeiIvPjxwYXRoIGZpbGw9IiM2MEUwMDAiIGQ9Ik00MjkuNDU4NzczIDcxMS42NzMxNzNjMTQuNzI1MTIgOC40OTkyIDI2LjY3ODYxMyAyOS4yMDQ0OCAyNi42Nzg2MTQgNDYuMjA5NzA3IDAgMTYuOTk4NC0xMS45NTM0OTMgMjMuOTAwMTYtMjYuNjc4NjE0IDE1LjQwMDk2LTE0LjcxODI5My04LjQ5OTItMjYuNjc4NjEzLTI5LjIwNDQ4LTI2LjY3ODYxMy00Ni4yMDk3MDcgMC0xNi45OTg0IDExLjk2MDMyLTIzLjkwMDE2IDI2LjY3ODYxMy0xNS40MDA5NnoiLz48cGF0aCBmaWxsPSIjNkQ4QUNBIiBkPSJNMTE3Ljg0ODc0NyA2OTQuODMxNzg3YzAgMTYuOTk4NCAxMC4zNDkyMjcgMzYuNzgyMDggMjMuMTAxNDQgNDQuMTQxMjI2bDE3OS4wNDI5ODYgMTAzLjM2OTM4N2MxMi43NTIyMTMgNy4zNTkxNDcgMjMuMTAxNDQtMC40NjQyMTMgMjMuMTAxNDQtMTcuNDY5NDQgMC0xNi45OTg0LTEwLjM0OTIyNy0zNi43ODIwOC0yMy4xMDE0NC00NC4xNDEyMjdMMTQwLjk1MDE4NyA2NzcuMzYyMzQ3Yy0xMi43NTIyMTMtNy4zNTkxNDctMjMuMTAxNDQgMC40NjQyMTMtMjMuMTAxNDQgMTcuNDY5NDR6Ii8+PHBhdGggZmlsbD0iIzYwRTAwMCIgZD0iTTQyOS40NTg3NzMgODQzLjkzMzAxM2MxNC43MjUxMiA4LjQ5OTIgMjYuNjc4NjEzIDI5LjIwNDQ4IDI2LjY3ODYxNCA0Ni4yMDk3MDcgMCAxNi45OTg0LTExLjk1MzQ5MyAyMy45MDAxNi0yNi42Nzg2MTQgMTUuNDAwOTYtMTQuNzE4MjkzLTguNDk5Mi0yNi42Nzg2MTMtMjkuMjA0NDgtMjYuNjc4NjEzLTQ2LjIwOTcwNyAwLTE2Ljk5ODQgMTEuOTYwMzItMjMuOTAwMTYgMjYuNjc4NjEzLTE1LjQwMDk2eiIvPjwvc3ZnPg==;" vertex="1" parent="1">
          <mxGeometry x="606" y="455" width="50" height="50" as="geometry" />
        </mxCell>
        <mxCell id="cFXNptnNOSwSshi6yC1L-15" value="&lt;font face=&quot;Comic Sans MS&quot; style=&quot;font-size: 10px;&quot;&gt;Vmnet1 Switch&lt;/font&gt;" style="text;html=1;align=center;verticalAlign=middle;resizable=0;points=[];autosize=1;strokeColor=none;fillColor=none;fontSize=10;fontFamily=Architects Daughter;fontColor=default;fontStyle=1" vertex="1" parent="1">
          <mxGeometry x="535" y="335" width="100" height="30" as="geometry" />
        </mxCell>
        <mxCell id="cFXNptnNOSwSshi6yC1L-16" value="&lt;font face=&quot;Comic Sans MS&quot; style=&quot;font-size: 10px;&quot;&gt;Internet&lt;/font&gt;" style="text;html=1;align=center;verticalAlign=middle;resizable=0;points=[];autosize=1;strokeColor=none;fillColor=none;fontSize=10;fontFamily=Architects Daughter;fontColor=default;fontStyle=1" vertex="1" parent="1">
          <mxGeometry x="305" y="228" width="60" height="30" as="geometry" />
        </mxCell>
        <mxCell id="cFXNptnNOSwSshi6yC1L-17" style="edgeStyle=orthogonalEdgeStyle;shape=connector;rounded=0;hachureGap=4;orthogonalLoop=1;jettySize=auto;html=1;exitX=0.5;exitY=0;exitDx=0;exitDy=0;entryX=0.5;entryY=1;entryDx=0;entryDy=0;labelBackgroundColor=default;strokeColor=default;fontFamily=Architects Daughter;fontSource=https%3A%2F%2Ffonts.googleapis.com%2Fcss%3Ffamily%3DArchitects%2BDaughter;fontSize=16;fontColor=default;endArrow=none;endFill=0;" edge="1" parent="1" source="cFXNptnNOSwSshi6yC1L-18" target="cFXNptnNOSwSshi6yC1L-1">
          <mxGeometry relative="1" as="geometry" />
        </mxCell>
        <mxCell id="cFXNptnNOSwSshi6yC1L-18" value="" style="shape=image;verticalLabelPosition=bottom;labelBackgroundColor=default;verticalAlign=top;aspect=fixed;imageAspect=0;image=data:image/svg+xml,PHN2ZyB4bWxuczp4bGluaz0iaHR0cDovL3d3dy53My5vcmcvMTk5OS94bGluayIgeG1sbnM9Imh0dHA6Ly93d3cudzMub3JnLzIwMDAvc3ZnIiBoZWlnaHQ9IjIwMCIgd2lkdGg9IjIwMCIgdmVyc2lvbj0iMS4xIiB2aWV3Qm94PSIwIDAgMTAyNCAxMDI0IiBjbGFzcz0iaWNvbiI+PHBhdGggZmlsbD0iIzEzMjI3YSIgZD0iTTk4OC40MTYgODIxLjIxNmwxLjUwNC0wLjU3Ni0xMDEuNTA0LTI2Ny4zMjhBNjQuMzIgNjQuMzIgMCAwIDAgODI4LjYwOCA1MTJoLTIwLjYwOFYxMTJhMzIgMzIgMCAxIDAtNjQgMFY1MTJINTQ0VjExMmEzMiAzMiAwIDEgMC02NCAwVjUxMkgyNzJWMTEyYTMyIDMyIDAgMCAwLTY0IDBWNTEyaC0xMi42MDhhNjQuMzIgNjQuMzIgMCAwIDAtNTkuODQgNDEuMzEybC0xMDEuNDcyIDI2Ny4zMjggMS41MDQgMC41NzZjLTIuMTEyIDguNjQtMy41ODQgMTcuNTA0LTMuNTg0IDI2Ljc4NEMzMiA5MDkuNzYgODIuMjQgOTYwIDE0NCA5NjBoNzM2YzYxLjc2IDAgMTEyLTUwLjI0IDExMi0xMTIgMC05LjI4LTEuNDcyLTE4LjE0NC0zLjU4NC0yNi43ODR6TTE5NS4zOTIgNTc2aDYzMy4xODRsNjEuMTIgMTYwLjk5MmMtMy4yMzItMC4yODgtNi4zNjgtMC45OTItOS42OTYtMC45OTJoLTczNmMtMy4zMjggMC02LjQ2NCAwLjcwNC05LjY5NiAwLjk5MkwxOTUuMzkyIDU3NnpNODgwIDg5NmgtNzM2Yy0yNi40NjQgMC00OC0yMS41MzYtNDgtNDhTMTE3LjUzNiA4MDAgMTQ0IDgwMGg3MzZjMjYuNDY0IDAgNDggMjEuNTM2IDQ4IDQ4cy0yMS41MzYgNDgtNDggNDh6Ii8+PC9zdmc+;" vertex="1" parent="1">
          <mxGeometry x="321.5" y="306" width="29" height="29" as="geometry" />
        </mxCell>
        <mxCell id="cFXNptnNOSwSshi6yC1L-19" value="&lt;font face=&quot;Comic Sans MS&quot; style=&quot;font-size: 8px;&quot;&gt;&lt;b&gt;Physical Host:192.168.245.1&lt;/b&gt;&lt;/font&gt;" style="text;html=1;align=center;verticalAlign=middle;resizable=0;points=[];autosize=1;strokeColor=none;fillColor=none;fontSize=8;fontFamily=Architects Daughter;fontColor=#B85450;" vertex="1" parent="1">
          <mxGeometry x="341" y="478" width="140" height="20" as="geometry" />
        </mxCell>
        <mxCell id="cFXNptnNOSwSshi6yC1L-20" value="&lt;font face=&quot;Comic Sans MS&quot; style=&quot;font-size: 8px;&quot;&gt;Router:192.168.1.1&lt;/font&gt;" style="text;html=1;align=center;verticalAlign=middle;resizable=0;points=[];autosize=1;strokeColor=none;fillColor=none;fontSize=8;fontFamily=Architects Daughter;fontColor=default;fontStyle=1" vertex="1" parent="1">
          <mxGeometry x="339" y="313" width="100" height="20" as="geometry" />
        </mxCell>
        <mxCell id="cFXNptnNOSwSshi6yC1L-21" value="&lt;font face=&quot;Comic Sans MS&quot; style=&quot;font-size: 8px;&quot;&gt;&lt;b&gt;Kali1:192.168.245.128&lt;/b&gt;&lt;/font&gt;" style="text;html=1;align=center;verticalAlign=middle;resizable=0;points=[];autosize=1;strokeColor=none;fillColor=none;fontSize=8;fontFamily=Architects Daughter;fontColor=#B85450;" vertex="1" parent="1">
          <mxGeometry x="476" y="507" width="110" height="20" as="geometry" />
        </mxCell>
        <mxCell id="cFXNptnNOSwSshi6yC1L-22" value="&lt;font face=&quot;Comic Sans MS&quot; style=&quot;font-size: 8px;&quot;&gt;Kali2:192.168.245.129&lt;/font&gt;" style="text;html=1;align=center;verticalAlign=middle;resizable=0;points=[];autosize=1;strokeColor=none;fillColor=none;fontSize=8;fontFamily=Architects Daughter;fontColor=#B85450;fontStyle=1" vertex="1" parent="1">
          <mxGeometry x="583" y="506" width="110" height="20" as="geometry" />
        </mxCell>
        <mxCell id="cFXNptnNOSwSshi6yC1L-23" style="shape=connector;rounded=0;hachureGap=4;orthogonalLoop=1;jettySize=auto;html=1;exitX=0;exitY=0.75;exitDx=0;exitDy=0;labelBackgroundColor=default;strokeColor=default;fontFamily=Architects Daughter;fontSource=https%3A%2F%2Ffonts.googleapis.com%2Fcss%3Ffamily%3DArchitects%2BDaughter;fontSize=16;fontColor=default;endArrow=none;endFill=0;" edge="1" parent="1" source="cFXNptnNOSwSshi6yC1L-25" target="cFXNptnNOSwSshi6yC1L-5">
          <mxGeometry relative="1" as="geometry" />
        </mxCell>
        <mxCell id="cFXNptnNOSwSshi6yC1L-24" style="edgeStyle=none;shape=connector;rounded=0;hachureGap=4;orthogonalLoop=1;jettySize=auto;html=1;exitX=1;exitY=0.25;exitDx=0;exitDy=0;entryX=0;entryY=0.5;entryDx=0;entryDy=0;labelBackgroundColor=default;strokeColor=default;fontFamily=Architects Daughter;fontSource=https%3A%2F%2Ffonts.googleapis.com%2Fcss%3Ffamily%3DArchitects%2BDaughter;fontSize=16;fontColor=default;endArrow=none;endFill=0;" edge="1" parent="1" source="cFXNptnNOSwSshi6yC1L-25" target="cFXNptnNOSwSshi6yC1L-9">
          <mxGeometry relative="1" as="geometry" />
        </mxCell>
        <mxCell id="cFXNptnNOSwSshi6yC1L-25" value="" style="shape=image;verticalLabelPosition=bottom;labelBackgroundColor=default;verticalAlign=top;aspect=fixed;imageAspect=0;image=data:image/svg+xml,PHN2ZyB4bWxuczp4bGluaz0iaHR0cDovL3d3dy53My5vcmcvMTk5OS94bGluayIgeG1sbnM9Imh0dHA6Ly93d3cudzMub3JnLzIwMDAvc3ZnIiBoZWlnaHQ9IjIwMCIgd2lkdGg9IjIwMCIgdmVyc2lvbj0iMS4xIiB2aWV3Qm94PSIwIDAgMTAyNCAxMDI0IiBjbGFzcz0iaWNvbiI+PHBhdGggZmlsbD0iIzEzMjI3YSIgZD0iTTgzMiAxOTJIMTcwLjY2NjY2N1YxMzguNjY2NjY3QzE3MC42NjY2NjcgMTIxLjYgMTU1LjczMzMzMyAxMDYuNjY2NjY3IDEzOC42NjY2NjcgMTA2LjY2NjY2N1MxMDYuNjY2NjY3IDEyMS42IDEwNi42NjY2NjcgMTM4LjY2NjY2N3Y3NDYuNjY2NjY2YzAgMTcuMDY2NjY3IDE0LjkzMzMzMyAzMiAzMiAzMlMxNzAuNjY2NjY3IDkwMi40IDE3MC42NjY2NjcgODg1LjMzMzMzM1Y3NjhoMTA2LjY2NjY2NnY0Mi42NjY2NjdjMCAyMy40NjY2NjcgMTkuMiA0Mi42NjY2NjcgNDIuNjY2NjY3IDQyLjY2NjY2Nmg0MjYuNjY2NjY3YzIzLjQ2NjY2NyAwIDQyLjY2NjY2Ny0xOS4yIDQyLjY2NjY2Ni00Mi42NjY2NjZ2LTQyLjY2NjY2N2g0Mi42NjY2NjdjNDYuOTMzMzMzIDAgODUuMzMzMzMzLTM4LjQgODUuMzMzMzMzLTg1LjMzMzMzM1YyNzcuMzMzMzMzYzAtNDYuOTMzMzMzLTM4LjQtODUuMzMzMzMzLTg1LjMzMzMzMy04NS4zMzMzMzN6TTQwNS4zMzMzMzMgNzQ2LjY2NjY2N2MwIDE3LjA2NjY2Ny0xNC45MzMzMzMgMzItMzIgMzJTMzQxLjMzMzMzMyA3NjMuNzMzMzMzIDM0MS4zMzMzMzMgNzQ2LjY2NjY2N3YtNDIuNjY2NjY3YzAtMTcuMDY2NjY3IDE0LjkzMzMzMy0zMiAzMi0zMnMzMiAxNC45MzMzMzMgMzIgMzJ2NDIuNjY2NjY3eiBtMTA2LjY2NjY2NyAwYzAgMTcuMDY2NjY3LTE0LjkzMzMzMyAzMi0zMiAzMlM0NDggNzYzLjczMzMzMyA0NDggNzQ2LjY2NjY2N3YtNDIuNjY2NjY3YzAtMTcuMDY2NjY3IDE0LjkzMzMzMy0zMiAzMi0zMnMzMiAxNC45MzMzMzMgMzIgMzJ2NDIuNjY2NjY3eiBtMC0xNzAuNjY2NjY3Yy0xNy4wNjY2NjcgMC0zMi0xNC45MzMzMzMtMzItMzIgMC0xMi44IDguNTMzMzMzLTIzLjQ2NjY2NyAxOS4yLTI5Ljg2NjY2NyAyLjEzMzMzMyAwIDQuMjY2NjY3LTIuMTMzMzMzIDQuMjY2NjY3LTIuMTMzMzMzaDEyLjhjMi4xMzMzMzMgMCA0LjI2NjY2NyAwIDQuMjY2NjY2IDIuMTMzMzMzIDEwLjY2NjY2NyA0LjI2NjY2NyAxOS4yIDE3LjA2NjY2NyAxOS4yIDI5Ljg2NjY2NyA0LjI2NjY2NyAxNy4wNjY2NjctMTAuNjY2NjY3IDMyLTI3LjczMzMzMyAzMnogbTEwNi42NjY2NjcgMTcwLjY2NjY2N2MwIDE3LjA2NjY2Ny0xNC45MzMzMzMgMzItMzIgMzJTNTU0LjY2NjY2NyA3NjMuNzMzMzMzIDU1NC42NjY2NjcgNzQ2LjY2NjY2N3YtNDIuNjY2NjY3YzAtMTcuMDY2NjY3IDE0LjkzMzMzMy0zMiAzMi0zMnMzMiAxNC45MzMzMzMgMzIgMzJ2NDIuNjY2NjY3eiBtLTMyLTI0NS4zMzMzMzRjLTguNTMzMzMzIDAtMTcuMDY2NjY3LTQuMjY2NjY3LTIzLjQ2NjY2Ny04LjUzMzMzMy0xMi44LTEyLjgtMzItMjEuMzMzMzMzLTUzLjMzMzMzMy0yMS4zMzMzMzNzLTM4LjQgOC41MzMzMzMtNTMuMzMzMzM0IDIzLjQ2NjY2NmMtNi40IDYuNC0xMi44IDguNTMzMzMzLTIzLjQ2NjY2NiA4LjUzMzMzNC0xNy4wNjY2NjcgMC0zMi0xNC45MzMzMzMtMzItMzIgMC04LjUzMzMzMyA0LjI2NjY2Ny0xNy4wNjY2NjcgOC41MzMzMzMtMjMuNDY2NjY3IDI1LjYtMjUuNiA1OS43MzMzMzMtNDAuNTMzMzMzIDk4LjEzMzMzMy00MC41MzMzMzNzNzIuNTMzMzMzIDE0LjkzMzMzMyA5OC4xMzMzMzQgNDAuNTMzMzMzYzYuNCA2LjQgOC41MzMzMzMgMTIuOCA4LjUzMzMzMyAyMS4zMzMzMzMgNC4yNjY2NjcgMTcuMDY2NjY3LTEwLjY2NjY2NyAzMi0yNy43MzMzMzMgMzJ6IG01My4zMzMzMzMtODUuMzMzMzMzQzYwOCAzODQgNTYxLjA2NjY2NyAzNjIuNjY2NjY3IDUxMiAzNjIuNjY2NjY3cy05NiAyMS4zMzMzMzMtMTI4IDUzLjMzMzMzM2MtNi40IDYuNC0xNC45MzMzMzMgMTAuNjY2NjY3LTIzLjQ2NjY2NyAxMC42NjY2NjctMTcuMDY2NjY3IDAtMzItMTQuOTMzMzMzLTMyLTMyIDAtOC41MzMzMzMgNC4yNjY2NjctMTcuMDY2NjY3IDEwLjY2NjY2Ny0yMy40NjY2NjdDMzg0IDMyNi40IDQ0My43MzMzMzMgMjk4LjY2NjY2NyA1MTIgMjk4LjY2NjY2N2M2Ni4xMzMzMzMgMCAxMjUuODY2NjY3IDI1LjYgMTY4LjUzMzMzMyA2OC4yNjY2NjZsMi4xMzMzMzQgMi4xMzMzMzRjNC4yNjY2NjcgNi40IDguNTMzMzMzIDEyLjggOC41MzMzMzMgMjEuMzMzMzMzIDAgMTcuMDY2NjY3LTE0LjkzMzMzMyAzMi0zMiAzMi02LjQgMi4xMzMzMzMtMTIuOC0yLjEzMzMzMy0xOS4yLTYuNHpNNzI1LjMzMzMzMyA3NDYuNjY2NjY3YzAgMTcuMDY2NjY3LTE0LjkzMzMzMyAzMi0zMiAzMlM2NjEuMzMzMzMzIDc2My43MzMzMzMgNjYxLjMzMzMzMyA3NDYuNjY2NjY3di00Mi42NjY2NjdjMC0xNy4wNjY2NjcgMTQuOTMzMzMzLTMyIDMyLTMyczMyIDE0LjkzMzMzMyAzMiAzMnY0Mi42NjY2Njd6Ii8+PC9zdmc+;" vertex="1" parent="1">
          <mxGeometry x="400" y="435" width="20" height="20" as="geometry" />
        </mxCell>
        <mxCell id="cFXNptnNOSwSshi6yC1L-26" value="&lt;font face=&quot;Comic Sans MS&quot; style=&quot;font-size: 8px;&quot;&gt;NIC2：Vmnet1 NIC&lt;/font&gt;" style="text;html=1;align=center;verticalAlign=middle;resizable=0;points=[];autosize=1;strokeColor=none;fillColor=none;fontSize=8;fontFamily=Architects Daughter;fontColor=default;fontStyle=1" vertex="1" parent="1">
          <mxGeometry x="380" y="451" width="100" height="20" as="geometry" />
        </mxCell>
        <mxCell id="cFXNptnNOSwSshi6yC1L-27" value="" style="shape=image;verticalLabelPosition=bottom;labelBackgroundColor=default;verticalAlign=top;aspect=fixed;imageAspect=0;image=data:image/svg+xml,PHN2ZyB4bWxuczp4bGluaz0iaHR0cDovL3d3dy53My5vcmcvMTk5OS94bGluayIgeG1sbnM9Imh0dHA6Ly93d3cudzMub3JnLzIwMDAvc3ZnIiBoZWlnaHQ9IjIwMCIgd2lkdGg9IjIwMCIgdmVyc2lvbj0iMS4xIiB2aWV3Qm94PSIwIDAgMTAyNCAxMDI0IiBjbGFzcz0iaWNvbiI+PHBhdGggZmlsbD0iIzQ3NjJBRiIgZD0iTTU0MS4yNzk1NzMgNTI5Ljk3NDYxM2MtMTcuNDQ4OTYtMTAuMDc2MTYtNDMuODg4NjQtMTEuMTc1MjUzLTU5LjAwMjg4LTIuNDUwNzczTDg1LjI5OTIgNzU2LjcyMjM0N2MtMTUuMTIxMDY3IDguNzI0NDgtMTMuMjE2NDI3IDIzLjk4ODkwNyA0LjIzMjUzMyAzNC4wNjUwNjZsMzg4LjUwNTYgMjI0LjMwMzc4N2MxNy40NTU3ODcgMTAuMDc2MTYgNDMuODk1NDY3IDExLjE3NTI1MyA1OS4wMDk3MDcgMi40NTA3NzNsMzk2Ljk3NzQ5My0yMjkuMTk4NTA2YzE1LjExNDI0LTguNzI0NDggMTMuMjE2NDI3LTIzLjk4ODkwNy00LjIzOTM2LTM0LjA2NTA2N2wtMzg4LjUwNTYtMjI0LjMwMzc4N3oiLz48cGF0aCBmaWxsPSIjNDc2MkFGIiBkPSJNNzUuMDkzMzMzIDI0OS44ODMzMDd2NTIxLjYzMjQyNmw0MzQuNTY1MTIgMjUxLjg5MDM0N1Y1MDEuNzczNjUzTDc1LjA5MzMzMyAyNDkuODgzMzA3eiIvPjxwYXRoIGZpbGw9IiM0NzYyQUYiIGQ9Ik01MDcuMjYyMjkzIDQ5NS4zNjM0MTNsNDM2LjkyNzE0Ny0yNDcuMjA3MjUzdjUyNC4zNzY3NDdMNTA3LjI2MjI5MyA2NzkuMDE0NFY0OTUuMzYzNDEzeiIvPjxwYXRoIGZpbGw9IiM2RDhBQ0EiIGQ9Ik01NDEuMjc5NTczIDguMzM1MzZDNTIzLjgzMDYxMy0xLjc0MDggNDk3LjM5MDkzMy0yLjgzMzA2NyA0ODIuMjc2NjkzIDUuODkxNDEzTDg1LjI5OTIgMjM1LjA4MzA5M2MtMTUuMTIxMDY3IDguNzMxMzA3LTEzLjIxNjQyNyAyMy45OTU3MzMgNC4yMzI1MzMgMzQuMDcxODk0bDM4OC41MDU2IDIyNC4zMDM3ODZjMTcuNDU1Nzg3IDEwLjA3NjE2IDQzLjg5NTQ2NyAxMS4xNjg0MjcgNTkuMDA5NzA3IDIuNDQzOTQ3bDM5Ni45Nzc0OTMtMjI5LjE5MTY4YzE1LjExNDI0LTguNzMxMzA3IDEzLjIxNjQyNy0yMy45OTU3MzMtNC4yMzkzNi0zNC4wNzE4OTNMNTQxLjI3OTU3MyA4LjMzNTM2ek0xMTcuODQ4NzQ3IDQzMC4zMDUyOGMwIDE3LjAwNTIyNyAxMC4zNDkyMjcgMzYuNzgyMDggMjMuMTAxNDQgNDQuMTQ4MDUzbDE3OS4wNDI5ODYgMTAzLjM2MjU2YzEyLjc1MjIxMyA3LjM2NTk3MyAyMy4xMDE0NC0wLjQ2NDIxMyAyMy4xMDE0NC0xNy40NjI2MTMgMC0xNy4wMDUyMjctMTAuMzQ5MjI3LTM2Ljc4MjA4LTIzLjEwMTQ0LTQ0LjE0ODA1M0wxNDAuOTUwMTg3IDQxMi44NDI2NjdjLTEyLjc1MjIxMy03LjM2NTk3My0yMy4xMDE0NCAwLjQ2NDIxMy0yMy4xMDE0NCAxNy40NjI2MTN6Ii8+PHBhdGggZmlsbD0iIzYwRTAwMCIgZD0iTTQyOS40NTg3NzMgNTc5LjQxMzMzM2MxNC43MjUxMiA4LjQ5OTIgMjYuNjc4NjEzIDI5LjIwNDQ4IDI2LjY3ODYxNCA0Ni4yMDI4OCAwIDE3LjAwNTIyNy0xMS45NTM0OTMgMjMuOTA2OTg3LTI2LjY3ODYxNCAxNS40MDc3ODctMTQuNzE4MjkzLTguNTA2MDI3LTI2LjY3ODYxMy0yOS4yMTEzMDctMjYuNjc4NjEzLTQ2LjIwOTcwNyAwLTE3LjAwNTIyNyAxMS45NjAzMi0yMy45MDY5ODcgMjYuNjc4NjEzLTE1LjQwMDk2eiIvPjxwYXRoIGZpbGw9IiM2RDhBQ0EiIGQ9Ik0xMTcuODQ4NzQ3IDU2Mi41NjUxMmMwIDE3LjAwNTIyNyAxMC4zNDkyMjcgMzYuNzgyMDggMjMuMTAxNDQgNDQuMTQ4MDUzbDE3OS4wNDI5ODYgMTAzLjM2OTM4N2MxMi43NTIyMTMgNy4zNTkxNDcgMjMuMTAxNDQtMC40NjQyMTMgMjMuMTAxNDQtMTcuNDY5NDQgMC0xNi45OTg0LTEwLjM0OTIyNy0zNi43ODIwOC0yMy4xMDE0NC00NC4xNDEyMjdMMTQwLjk1MDE4NyA1NDUuMTAyNTA3Yy0xMi43NTIyMTMtNy4zNjU5NzMtMjMuMTAxNDQgMC40NjQyMTMtMjMuMTAxNDQgMTcuNDYyNjEzeiIvPjxwYXRoIGZpbGw9IiM2MEUwMDAiIGQ9Ik00MjkuNDU4NzczIDcxMS42NzMxNzNjMTQuNzI1MTIgOC40OTkyIDI2LjY3ODYxMyAyOS4yMDQ0OCAyNi42Nzg2MTQgNDYuMjA5NzA3IDAgMTYuOTk4NC0xMS45NTM0OTMgMjMuOTAwMTYtMjYuNjc4NjE0IDE1LjQwMDk2LTE0LjcxODI5My04LjQ5OTItMjYuNjc4NjEzLTI5LjIwNDQ4LTI2LjY3ODYxMy00Ni4yMDk3MDcgMC0xNi45OTg0IDExLjk2MDMyLTIzLjkwMDE2IDI2LjY3ODYxMy0xNS40MDA5NnoiLz48cGF0aCBmaWxsPSIjNkQ4QUNBIiBkPSJNMTE3Ljg0ODc0NyA2OTQuODMxNzg3YzAgMTYuOTk4NCAxMC4zNDkyMjcgMzYuNzgyMDggMjMuMTAxNDQgNDQuMTQxMjI2bDE3OS4wNDI5ODYgMTAzLjM2OTM4N2MxMi43NTIyMTMgNy4zNTkxNDcgMjMuMTAxNDQtMC40NjQyMTMgMjMuMTAxNDQtMTcuNDY5NDQgMC0xNi45OTg0LTEwLjM0OTIyNy0zNi43ODIwOC0yMy4xMDE0NC00NC4xNDEyMjdMMTQwLjk1MDE4NyA2NzcuMzYyMzQ3Yy0xMi43NTIyMTMtNy4zNTkxNDctMjMuMTAxNDQgMC40NjQyMTMtMjMuMTAxNDQgMTcuNDY5NDR6Ii8+PHBhdGggZmlsbD0iIzYwRTAwMCIgZD0iTTQyOS40NTg3NzMgODQzLjkzMzAxM2MxNC43MjUxMiA4LjQ5OTIgMjYuNjc4NjEzIDI5LjIwNDQ4IDI2LjY3ODYxNCA0Ni4yMDk3MDcgMCAxNi45OTg0LTExLjk1MzQ5MyAyMy45MDAxNi0yNi42Nzg2MTQgMTUuNDAwOTYtMTQuNzE4MjkzLTguNDk5Mi0yNi42Nzg2MTMtMjkuMjA0NDgtMjYuNjc4NjEzLTQ2LjIwOTcwNyAwLTE2Ljk5ODQgMTEuOTYwMzItMjMuOTAwMTYgMjYuNjc4NjEzLTE1LjQwMDk2eiIvPjwvc3ZnPg==;" vertex="1" parent="1">
          <mxGeometry x="692" y="360" width="50" height="50" as="geometry" />
        </mxCell>
        <mxCell id="cFXNptnNOSwSshi6yC1L-28" value="&lt;font face=&quot;Comic Sans MS&quot;&gt;&lt;b&gt;Virtual DHCP Server&lt;/b&gt;&lt;/font&gt;" style="text;html=1;align=center;verticalAlign=middle;resizable=0;points=[];autosize=1;strokeColor=none;fillColor=none;fontSize=8;fontFamily=Architects Daughter;fontColor=default;" vertex="1" parent="1">
          <mxGeometry x="664" y="409" width="100" height="20" as="geometry" />
        </mxCell>
        <mxCell id="cFXNptnNOSwSshi6yC1L-29" value="&lt;font face=&quot;Comic Sans MS&quot; style=&quot;font-size: 8px;&quot;&gt;Physical Host:192.168.1.109&lt;/font&gt;" style="text;html=1;align=center;verticalAlign=middle;resizable=0;points=[];autosize=1;strokeColor=none;fillColor=none;fontSize=8;fontFamily=Architects Daughter;fontColor=default;fontStyle=1" vertex="1" parent="1">
          <mxGeometry x="203" y="432" width="140" height="20" as="geometry" />
        </mxCell>
        <mxCell id="cFXNptnNOSwSshi6yC1L-30" value="&lt;font face=&quot;Comic Sans MS&quot; style=&quot;font-size: 8px;&quot;&gt;192.168.245.254&lt;/font&gt;" style="text;html=1;align=center;verticalAlign=middle;resizable=0;points=[];autosize=1;strokeColor=none;fillColor=none;fontSize=8;fontFamily=Architects Daughter;fontColor=#B85450;fontStyle=1" vertex="1" parent="1">
          <mxGeometry x="672" y="419" width="90" height="20" as="geometry" />
        </mxCell>
        <mxCell id="cFXNptnNOSwSshi6yC1L-31" value="&lt;font face=&quot;Comic Sans MS&quot; style=&quot;font-size: 8px;&quot;&gt;NIC1&lt;/font&gt;" style="text;html=1;align=center;verticalAlign=middle;resizable=0;points=[];autosize=1;strokeColor=none;fillColor=none;fontSize=8;fontFamily=Architects Daughter;fontColor=default;fontStyle=1" vertex="1" parent="1">
          <mxGeometry x="293" y="351" width="40" height="20" as="geometry" />
        </mxCell>
      </root>
    </mxGraphModel>
  </diagram>
</mxfile>
